<?xml version="1.0" encoding="UTF-8"?>
<svg version="1.1" xmlns="http://www.w3.org/2000/svg" width="480" height="480">
<path d="M0 0 C1.96655753 1.80007647 3.98025177 3.50822445 6.02734375 5.21484375 C42.42408722 37.24397801 64.66776773 84.21337648 74.21484375 131.02734375 C74.39418457 131.87006836 74.57352539 132.71279297 74.75830078 133.58105469 C80.55186673 161.94478867 79.33460921 194.85034143 73.21484375 223.02734375 C73.00053711 224.02024414 72.78623047 225.01314453 72.56542969 226.03613281 C63.66679655 265.81444777 44.58610451 302.64783797 16.703125 332.3515625 C14.6182329 334.59355793 12.62374169 336.87409725 10.65234375 339.21484375 C-19.96672179 374.30069061 -67.93863842 396.16620433 -112.78515625 405.02734375 C-113.60983398 405.19250488 -114.43451172 405.35766602 -115.28417969 405.52783203 C-143.77953032 410.92442507 -175.48589148 409.97436099 -203.78515625 404.02734375 C-204.68911133 403.84010742 -205.59306641 403.65287109 -206.52441406 403.45996094 C-243.32505696 395.58867455 -278.3018005 378.65311116 -306.78515625 354.02734375 C-307.90470703 353.07408203 -307.90470703 353.07408203 -309.046875 352.1015625 C-323.51312866 339.45280081 -336.78160065 325.80512367 -347.78515625 310.02734375 C-348.26001465 309.34881348 -348.73487305 308.6702832 -349.22412109 307.97119141 C-370.41611944 277.31182668 -384.02029212 242.00094082 -388.78515625 205.02734375 C-388.87941895 204.35493652 -388.97368164 203.6825293 -389.07080078 202.98974609 C-391.84931935 180.18998814 -391.54739292 154.47848958 -386.78515625 132.02734375 C-386.57584473 131.02896484 -386.3665332 130.03058594 -386.15087891 129.00195312 C-377.13338096 87.06069586 -359.12986454 49.34051674 -330.07421875 17.5390625 C-328.53255396 15.84744055 -327.00670181 14.14128724 -325.49609375 12.421875 C-320.88397448 7.18371204 -316.14849017 2.48406429 -310.78515625 -1.97265625 C-309.93695313 -2.70871094 -309.08875 -3.44476563 -308.21484375 -4.203125 C-294.5130192 -15.94487928 -279.80839841 -25.69438255 -263.78515625 -33.97265625 C-263.0566748 -34.35518555 -262.32819336 -34.73771484 -261.57763672 -35.13183594 C-240.29447842 -46.20039931 -217.36214073 -52.91596123 -193.78515625 -56.97265625 C-193.08036133 -57.09721191 -192.37556641 -57.22176758 -191.64941406 -57.35009766 C-123.82793887 -68.99882431 -50.33458697 -46.41876821 0 0 Z M-63.78515625 -20.97265625 C-61.60879223 -12.82642618 -59.2608689 -4.73904833 -56.84765625 3.33984375 C-54.1054218 12.55407795 -51.3855755 21.77190419 -48.78515625 31.02734375 C-47.26148438 31.26517578 -47.26148438 31.26517578 -45.70703125 31.5078125 C-31.32731513 33.8833781 -19.91670525 38.1882823 -8.78515625 48.02734375 C-7.76035156 49.58195312 -7.76035156 49.58195312 -6.71484375 51.16796875 C-2.98923902 55.80380227 3.11708403 55.66976928 8.65234375 56.33984375 C9.77189453 56.49517578 10.89144531 56.65050781 12.04492188 56.81054688 C14.13438471 57.09947556 16.22535843 57.37783111 18.31811523 57.6418457 C21.29677127 58.0382467 24.25352262 58.51845679 27.21484375 59.02734375 C19.32876401 45.99703319 10.15489389 34.49200572 -0.35644531 23.51904297 C-1.67180843 22.14568879 -2.97516475 20.76086135 -4.27734375 19.375 C-10.89548994 12.50731715 -18.1757227 6.73648669 -25.78515625 1.02734375 C-26.3471875 0.59921387 -26.90921875 0.17108398 -27.48828125 -0.27001953 C-34.4565217 -5.5592885 -41.64620217 -10.20350918 -49.28515625 -14.47265625 C-50.03893555 -14.89426025 -50.79271484 -15.31586426 -51.56933594 -15.75024414 C-55.55862982 -17.92545255 -59.39915315 -19.69571864 -63.78515625 -20.97265625 Z M-304.11767578 15.26318359 C-305.74526571 16.98514038 -307.42834326 18.61367964 -309.15625 20.234375 C-316.86957783 27.54007418 -323.46307341 35.50874542 -329.78515625 44.02734375 C-330.21425293 44.59565918 -330.64334961 45.16397461 -331.08544922 45.74951172 C-337.84819461 54.7246812 -343.58967785 64.0664838 -348.78515625 74.02734375 C-349.15495605 74.72891602 -349.52475586 75.43048828 -349.90576172 76.15332031 C-360.06629746 95.68094431 -367.47340796 117.23304241 -370.78515625 139.02734375 C-370.95958252 140.16034912 -371.13400879 141.29335449 -371.3137207 142.46069336 C-372.80162469 153.06903234 -373.14164723 163.51189123 -373.09765625 174.21484375 C-373.09683044 175.06774994 -373.09600464 175.92065613 -373.09515381 176.79940796 C-373.06633769 189.74861164 -372.40557236 202.31230499 -369.78515625 215.02734375 C-369.41779295 216.87496505 -369.05060747 218.72262172 -368.68359375 220.5703125 C-368.38466131 222.05609969 -368.08538322 223.5418176 -367.78515625 225.02734375 C-362.68199905 221.35307057 -357.85800632 217.44143038 -353.09765625 213.33984375 C-352.49405273 212.8200293 -351.89044922 212.30021484 -351.26855469 211.76464844 C-348.88937835 209.71259312 -346.51223693 207.65822805 -344.13916016 205.59912109 C-329.8503495 193.2213563 -314.69256223 182.23459592 -298.78515625 172.02734375 C-298.17414063 171.63482422 -297.563125 171.24230469 -296.93359375 170.83789062 C-280.57049613 160.43668395 -263.14975628 151.5647981 -245.22265625 144.21484375 C-244.23362305 143.80766113 -243.24458984 143.40047852 -242.22558594 142.98095703 C-218.24824085 133.4258744 -193.25625895 126.68857457 -168.4776001 119.58569336 C-163.76654098 118.23404875 -159.05718822 116.87648529 -154.34765625 115.51953125 C-139.83157647 111.33884347 -125.31129956 107.17293217 -110.78515625 103.02734375 C-110.80706528 102.36662872 -110.8289743 101.7059137 -110.85154724 101.025177 C-111.22483737 89.1914578 -111.17953137 79.14564224 -106.78515625 68.02734375 C-106.43885543 66.69731945 -106.10324121 65.3643968 -105.78515625 64.02734375 C-158.02502521 35.92631739 -212.80053865 17.21366438 -271.31835938 7.63476562 C-274.29409631 7.11338298 -277.20749611 6.49445326 -280.14453125 5.79296875 C-291.49307967 3.29190112 -296.63167768 7.26573336 -304.11767578 15.26318359 Z M-87.02734375 65.5546875 C-94.60080911 76.20802877 -95.8027332 87.34407804 -94.78515625 100.02734375 C-92.74061283 111.35697924 -86.48703978 120.51916626 -77.41015625 127.46484375 C-66.87736813 134.60373348 -55.66871065 137.66996265 -43.01171875 135.56640625 C-32.38813538 132.97900056 -22.44206405 127.88917671 -15.78515625 119.02734375 C-8.4760155 106.79247771 -4.84527798 95.27170653 -7.91015625 81.08984375 C-10.78164523 70.61422656 -17.09188092 60.76724517 -26.49462891 54.97412109 C-47.99492175 42.96109616 -70.75894793 46.35534587 -87.02734375 65.5546875 Z M-27.41015625 147.40234375 C-37.84790321 151.81160679 -47.59527109 152.47630562 -58.78515625 153.02734375 C-65.38884354 168.82071463 -71.8717129 184.65797552 -78.203125 200.5625 C-78.51918827 201.35596203 -78.83525154 202.14942406 -79.16089249 202.96693039 C-82.09448992 210.33218013 -85.02433471 217.69891626 -87.94799805 225.06811523 C-105.61146577 269.57599662 -105.61146577 269.57599662 -116.09765625 289.58984375 C-116.64397705 290.63503174 -117.19029785 291.68021973 -117.75317383 292.75708008 C-128.40716208 312.85810555 -141.42715348 331.41616489 -155.78515625 349.02734375 C-156.24132324 349.589375 -156.69749023 350.15140625 -157.16748047 350.73046875 C-165.54050538 360.95276868 -174.82075377 370.21639491 -184.26660156 379.43530273 C-184.76272446 379.92286041 -185.25884735 380.41041809 -185.77000427 380.91275024 C-187.13622335 382.25473609 -188.50801866 383.5910381 -189.88012695 384.92700195 C-192.00909896 386.80164773 -192.00909896 386.80164773 -191.78515625 389.02734375 C-180.0176911 390.8036992 -168.49130188 391.39257021 -156.59765625 391.33984375 C-155.74109436 391.33802094 -154.88453247 391.33619812 -154.00201416 391.33432007 C-141.04466442 391.28796293 -128.49331943 390.74616388 -115.78515625 388.02734375 C-114.51696045 387.76993408 -114.51696045 387.76993408 -113.22314453 387.50732422 C-79.3218098 380.52488476 -47.63806474 365.89886723 -20.78515625 344.02734375 C-20.25325684 343.5984082 -19.72135742 343.16947266 -19.17333984 342.72753906 C-2.27180191 329.03785148 11.44568177 313.34127542 24.03466797 295.63964844 C25.00351382 294.31605349 26.04021598 293.04238811 27.09375 291.78515625 C29.43785732 288.8087148 30.26539202 286.93167923 30.04980469 283.07470703 C28.71834453 274.62561366 27.11134674 266.29116491 25.15234375 257.96484375 C25.00244995 257.32693909 24.85255615 256.68903442 24.69812012 256.03179932 C15.47216543 217.04078556 0.700814 180.00318112 -18.78515625 145.02734375 C-22.29464157 145.02734375 -24.21571258 145.97433663 -27.41015625 147.40234375 Z " fill="#485560" transform="translate(395.78515625,65.97265625)"/>
</svg>
