<?xml version="1.0" standalone="no"?>
<!DOCTYPE svg PUBLIC "-//W3C//DTD SVG 1.1//EN" "http://www.w3.org/Graphics/SVG/1.1/DTD/svg11.dtd" >
<svg xmlns="http://www.w3.org/2000/svg" xmlns:xlink="http://www.w3.org/1999/xlink" version="1.1" viewBox="-10 0 522 512">
   <path fill="#16929c"
d="M275 236l197 -76v320h-116v-103h-45v103h-36v-244zM356 337v-68h-45v68h45zM441 444v-67h-45v67h45zM441 337v-68h-45v68h45zM42 32h215v448h-40v-103h-45v103h-130v-448zM127 444v-67h-45v67h45zM127 337v-68h-45v68h45zM127 234v-68h-45v68h45zM127 131v-68h-45v68h45z
M217 337v-68h-45v68h45zM217 234v-68h-45v68h45zM217 131v-68h-45v68h45z" />
</svg>
