<?xml version="1.0" encoding="UTF-8"?>
<!DOCTYPE svg PUBLIC "-//W3C//DTD SVG 1.1//EN" "http://www.w3.org/Graphics/SVG/1.1/DTD/svg11.dtd">
<svg xmlns="http://www.w3.org/2000/svg" version="1.1" width="230px" height="230px" style="shape-rendering:geometricPrecision; text-rendering:geometricPrecision; image-rendering:optimizeQuality; fill-rule:evenodd; clip-rule:evenodd" xmlns:xlink="http://www.w3.org/1999/xlink">
<g><path style="opacity:0.59" fill="#aecfd3" d="M 112.5,26.5 C 113.833,26.5 115.167,26.5 116.5,26.5C 116.5,27.8333 116.5,29.1667 116.5,30.5C 115.167,57.8252 114.5,85.4919 114.5,113.5C 114.5,141.508 115.167,169.175 116.5,196.5C 116.703,198.39 116.037,199.89 114.5,201C 114.833,201.333 115.167,201.667 115.5,202C 111.179,202.499 106.846,202.666 102.5,202.5C 106.119,202.119 109.452,201.119 112.5,199.5C 112.5,141.833 112.5,84.1667 112.5,26.5 Z"/></g>
<g><path style="opacity:0.198" fill="#c9dfe1" d="M 116.5,30.5 C 116.5,85.8333 116.5,141.167 116.5,196.5C 115.167,169.175 114.5,141.508 114.5,113.5C 114.5,85.4919 115.167,57.8252 116.5,30.5 Z"/></g>
<g><path style="opacity:0.925" fill="#63a3ab" d="M 31.5,28.5 C 31.5,84.5 31.5,140.5 31.5,196.5C 31.5,197.5 31.5,198.5 31.5,199.5C 46.8333,199.5 62.1667,199.5 77.5,199.5C 77.8333,199.5 78.1667,199.5 78.5,199.5C 78.5,199.833 78.5,200.167 78.5,200.5C 62.1667,200.5 45.8333,200.5 29.5,200.5C 29.5,199.167 29.5,197.833 29.5,196.5C 30.1667,140.5 30.8333,84.5 31.5,28.5 Z"/></g>
<g><path style="opacity:1" fill="#328792" d="M 110.5,31.5 C 109.833,31.5 109.167,31.5 108.5,31.5C 107.167,31.5 105.833,31.5 104.5,31.5C 81.1667,31.5 57.8333,31.5 34.5,31.5C 34.5,86.8333 34.5,142.167 34.5,197.5C 48.8693,197.782 63.2027,197.449 77.5,196.5C 77.5,197.5 77.5,198.5 77.5,199.5C 62.1667,199.5 46.8333,199.5 31.5,199.5C 31.5,198.5 31.5,197.5 31.5,196.5C 32.499,141.002 32.8323,85.3358 32.5,29.5C 58.8548,28.8424 84.8548,29.509 110.5,31.5 Z"/></g>
<g><path style="opacity:1" fill="#3e8d97" d="M 104.5,31.5 C 103.081,32.4511 101.415,32.7845 99.5,32.5C 99.5,33.8333 99.5,35.1667 99.5,36.5C 92.8333,36.5 86.1667,36.5 79.5,36.5C 79.5,35.1667 79.5,33.8333 79.5,32.5C 73.8333,32.5 68.1667,32.5 62.5,32.5C 62.5,33.8333 62.5,35.1667 62.5,36.5C 56.8333,36.5 51.1667,36.5 45.5,36.5C 43.8235,35.8166 43.1568,34.4832 43.5,32.5C 41.5,32.5 39.5,32.5 37.5,32.5C 38.1565,86.6483 37.4899,140.648 35.5,194.5C 48.4829,195.499 61.4829,195.832 74.5,195.5C 74.3335,184.162 74.5001,172.828 75,161.5C 75.7697,160.402 76.603,160.402 77.5,161.5C 77.5,173.167 77.5,184.833 77.5,196.5C 63.2027,197.449 48.8693,197.782 34.5,197.5C 34.5,142.167 34.5,86.8333 34.5,31.5C 57.8333,31.5 81.1667,31.5 104.5,31.5 Z"/></g>
<g><path style="opacity:1" fill="#418f99" d="M 104.5,31.5 C 105.833,31.5 107.167,31.5 108.5,31.5C 108.667,86.1677 108.5,140.834 108,195.5C 106.599,197.192 104.766,197.859 102.5,197.5C 102.832,185.814 102.499,174.148 101.5,162.5C 100.501,174.815 100.168,187.149 100.5,199.5C 100.167,199.5 99.8333,199.5 99.5,199.5C 99.5,186.833 99.5,174.167 99.5,161.5C 99.5858,160.504 99.2524,159.671 98.5,159C 91.8333,158.333 85.1667,158.333 78.5,159C 77.7476,159.671 77.4142,160.504 77.5,161.5C 76.603,160.402 75.7697,160.402 75,161.5C 74.5001,172.828 74.3335,184.162 74.5,195.5C 61.4829,195.832 48.4829,195.499 35.5,194.5C 37.4899,140.648 38.1565,86.6483 37.5,32.5C 39.5,32.5 41.5,32.5 43.5,32.5C 43.1568,34.4832 43.8235,35.8166 45.5,36.5C 45.5,36.8333 45.5,37.1667 45.5,37.5C 44.8826,37.6107 44.3826,37.944 44,38.5C 43.3333,47.5 43.3333,56.5 44,65.5C 44.6708,66.2524 45.5041,66.5858 46.5,66.5C 46.5,66.8333 46.5,67.1667 46.5,67.5C 44.8235,68.1834 44.1568,69.5168 44.5,71.5C 50.5092,71.6662 56.5092,71.4995 62.5,71C 63.9733,70.2904 64.6399,69.1238 64.5,67.5C 65.8221,67.67 66.9887,67.3366 68,66.5C 68.8321,57.1489 68.6654,47.8155 67.5,38.5C 66.914,38.2907 66.414,37.9574 66,37.5C 65.7216,38.4158 65.2216,39.0825 64.5,39.5C 63.8333,38.5 63.1667,37.5 62.5,36.5C 62.5,35.1667 62.5,33.8333 62.5,32.5C 68.1667,32.5 73.8333,32.5 79.5,32.5C 79.5,33.8333 79.5,35.1667 79.5,36.5C 86.1667,36.5 92.8333,36.5 99.5,36.5C 99.5,35.1667 99.5,33.8333 99.5,32.5C 101.415,32.7845 103.081,32.4511 104.5,31.5 Z"/></g>
<g><path style="opacity:0.988" fill="#6da9b0" d="M 112.5,26.5 C 112.5,84.1667 112.5,141.833 112.5,199.5C 112.167,199.5 111.833,199.5 111.5,199.5C 111.5,143.5 111.5,87.5 111.5,31.5C 111.5,30.5 111.5,29.5 111.5,28.5C 84.8333,28.5 58.1667,28.5 31.5,28.5C 30.8333,84.5 30.1667,140.5 29.5,196.5C 29.5,139.833 29.5,83.1667 29.5,26.5C 57.1667,26.5 84.8333,26.5 112.5,26.5 Z"/></g>
<g><path style="opacity:1" fill="#43919a" d="M 31.5,28.5 C 58.1667,28.5 84.8333,28.5 111.5,28.5C 111.5,29.5 111.5,30.5 111.5,31.5C 111.167,31.5 110.833,31.5 110.5,31.5C 84.8548,29.509 58.8548,28.8424 32.5,29.5C 32.8323,85.3358 32.499,141.002 31.5,196.5C 31.5,140.5 31.5,84.5 31.5,28.5 Z"/></g>
<g><path style="opacity:1" fill="#348993" d="M 108.5,31.5 C 109.167,31.5 109.833,31.5 110.5,31.5C 110.5,87.5 110.5,143.5 110.5,199.5C 107.167,199.5 103.833,199.5 100.5,199.5C 100.168,187.149 100.501,174.815 101.5,162.5C 102.499,174.148 102.832,185.814 102.5,197.5C 104.766,197.859 106.599,197.192 108,195.5C 108.5,140.834 108.667,86.1677 108.5,31.5 Z"/></g>
<g><path style="opacity:1" fill="#4c969f" d="M 110.5,31.5 C 110.833,31.5 111.167,31.5 111.5,31.5C 111.5,87.5 111.5,143.5 111.5,199.5C 107.5,200.833 103.5,200.833 99.5,199.5C 99.8333,199.5 100.167,199.5 100.5,199.5C 103.833,199.5 107.167,199.5 110.5,199.5C 110.5,143.5 110.5,87.5 110.5,31.5 Z"/></g>
<g><path style="opacity:1" fill="#9fc6cc" d="M 61.5,38.5 C 62.1667,38.5 62.5,38.8333 62.5,39.5C 62.5,39.8333 62.5,40.1667 62.5,40.5C 57.0671,39.1979 51.7337,39.1979 46.5,40.5C 45.5076,48.3159 45.1743,56.3159 45.5,64.5C 44.3434,56.3437 44.1768,48.0104 45,39.5C 50.4066,38.5268 55.9066,38.1934 61.5,38.5 Z"/></g>
<g><path style="opacity:1" fill="#398b95" d="M 74.5,38.5 C 75.5,38.5 76.5,38.5 77.5,38.5C 77.8316,47.8571 77.4983,57.1904 76.5,66.5C 75.914,66.2907 75.414,65.9574 75,65.5C 74.5002,56.5062 74.3336,47.5062 74.5,38.5 Z"/></g>
<g><path style="opacity:1" fill="#cbe1e3" d="M 62.5,40.5 C 62.8257,48.6841 62.4924,56.6841 61.5,64.5C 61.8254,56.6484 61.492,48.9818 60.5,41.5C 56.1667,40.1667 51.8333,40.1667 47.5,41.5C 47.1667,41.5 46.8333,41.5 46.5,41.5C 46.5,41.1667 46.5,40.8333 46.5,40.5C 51.7337,39.1979 57.0671,39.1979 62.5,40.5 Z"/></g>
<g><path style="opacity:1" fill="#fdfefe" d="M 60.5,41.5 C 60.5,48.8333 60.5,56.1667 60.5,63.5C 56.1667,63.5 51.8333,63.5 47.5,63.5C 47.5,56.1667 47.5,48.8333 47.5,41.5C 51.8333,40.1667 56.1667,40.1667 60.5,41.5 Z"/></g>
<g><path style="opacity:1" fill="#569ca4" d="M 45.5,37.5 C 45.5,37.1667 45.5,36.8333 45.5,36.5C 51.1667,36.5 56.8333,36.5 62.5,36.5C 63.1667,37.5 63.8333,38.5 64.5,39.5C 64.6664,48.5062 64.4998,57.5062 64,66.5C 58.2588,67.4749 52.4254,67.8082 46.5,67.5C 46.5,67.1667 46.5,66.8333 46.5,66.5C 52.0934,66.8066 57.5934,66.4732 63,65.5C 63.8236,56.6567 63.6569,47.9901 62.5,39.5C 62.5,38.8333 62.1667,38.5 61.5,38.5C 56.3595,37.5119 51.0262,37.1786 45.5,37.5 Z"/></g>
<g><path style="opacity:1" fill="#70abb2" d="M 96.5,38.5 C 90.9066,38.1934 85.4066,38.5268 80,39.5C 79.5003,47.8267 79.3336,56.16 79.5,64.5C 78.3431,56.0099 78.1764,47.3433 79,38.5C 84.9323,37.1747 90.7657,37.1747 96.5,38.5 Z"/></g>
<g><path style="opacity:1" fill="#318691" d="M 100.5,39.5 C 101.825,43.2762 102.491,47.4428 102.5,52C 102.167,56.1667 101.833,60.3333 101.5,64.5C 100.502,56.1932 100.169,47.8599 100.5,39.5 Z"/></g>
<g><path style="opacity:1" fill="#89bac0" d="M 62.5,39.5 C 63.6569,47.9901 63.8236,56.6567 63,65.5C 57.5934,66.4732 52.0934,66.8066 46.5,66.5C 46.5,66.1667 46.5,65.8333 46.5,65.5C 51.6946,65.8205 56.6946,65.4872 61.5,64.5C 62.4924,56.6841 62.8257,48.6841 62.5,40.5C 62.5,40.1667 62.5,39.8333 62.5,39.5 Z"/></g>
<g><path style="opacity:1" fill="#9ec6cb" d="M 96.5,38.5 C 96.5,38.8333 96.5,39.1667 96.5,39.5C 91.3054,39.1795 86.3054,39.5128 81.5,40.5C 80.5076,48.3159 80.1743,56.3159 80.5,64.5C 80.1667,64.5 79.8333,64.5 79.5,64.5C 79.3336,56.16 79.5003,47.8267 80,39.5C 85.4066,38.5268 90.9066,38.1934 96.5,38.5 Z"/></g>
<g><path style="opacity:1" fill="#cee2e5" d="M 81.5,40.5 C 86.3054,39.5128 91.3054,39.1795 96.5,39.5C 97.1667,39.5 97.5,39.8333 97.5,40.5C 97.8257,48.6841 97.4924,56.6841 96.5,64.5C 96.5,56.5 96.5,48.5 96.5,40.5C 91.5,40.5 86.5,40.5 81.5,40.5 Z"/></g>
<g><path style="opacity:1" fill="#9ac4c9" d="M 97.5,40.5 C 98.4924,48.3159 98.8257,56.3159 98.5,64.5C 98.1583,65.3382 97.4916,65.6716 96.5,65.5C 96.5,65.1667 96.5,64.8333 96.5,64.5C 97.4924,56.6841 97.8257,48.6841 97.5,40.5 Z"/></g>
<g><path style="opacity:1" fill="#69a7af" d="M 96.5,39.5 C 96.5,39.1667 96.5,38.8333 96.5,38.5C 97.4959,38.4142 98.3292,38.7476 99,39.5C 99.4997,47.8267 99.6664,56.16 99.5,64.5C 99.1667,64.5 98.8333,64.5 98.5,64.5C 98.8257,56.3159 98.4924,48.3159 97.5,40.5C 97.5,39.8333 97.1667,39.5 96.5,39.5 Z"/></g>
<g><path style="opacity:1" fill="#69a6af" d="M 45.5,37.5 C 51.0262,37.1786 56.3595,37.5119 61.5,38.5C 55.9066,38.1934 50.4066,38.5268 45,39.5C 44.1768,48.0104 44.3434,56.3437 45.5,64.5C 45.5,65.1667 45.8333,65.5 46.5,65.5C 46.5,65.8333 46.5,66.1667 46.5,66.5C 45.5041,66.5858 44.6708,66.2524 44,65.5C 43.3333,56.5 43.3333,47.5 44,38.5C 44.3826,37.944 44.8826,37.6107 45.5,37.5 Z"/></g>
<g><path style="opacity:1" fill="#eaf2f3" d="M 46.5,41.5 C 46.8333,41.5 47.1667,41.5 47.5,41.5C 47.5,48.8333 47.5,56.1667 47.5,63.5C 51.8333,63.5 56.1667,63.5 60.5,63.5C 60.5,56.1667 60.5,48.8333 60.5,41.5C 61.492,48.9818 61.8254,56.6484 61.5,64.5C 56.5,64.5 51.5,64.5 46.5,64.5C 46.5,56.8333 46.5,49.1667 46.5,41.5 Z"/></g>
<g><path style="opacity:1" fill="#edf4f5" d="M 81.5,40.5 C 86.5,40.5 91.5,40.5 96.5,40.5C 96.5,48.5 96.5,56.5 96.5,64.5C 91.5,64.5 86.5,64.5 81.5,64.5C 81.5,56.5 81.5,48.5 81.5,40.5 Z"/></g>
<g><path style="opacity:1" fill="#fefefe" d="M 82.5,41.5 C 86.8333,41.5 91.1667,41.5 95.5,41.5C 95.5,48.8333 95.5,56.1667 95.5,63.5C 91.1667,63.5 86.8333,63.5 82.5,63.5C 82.5,56.1667 82.5,48.8333 82.5,41.5 Z"/></g>
<g><path style="opacity:1" fill="#c0dadd" d="M 46.5,40.5 C 46.5,40.8333 46.5,41.1667 46.5,41.5C 46.5,49.1667 46.5,56.8333 46.5,64.5C 51.5,64.5 56.5,64.5 61.5,64.5C 56.6946,65.4872 51.6946,65.8205 46.5,65.5C 45.8333,65.5 45.5,65.1667 45.5,64.5C 45.1743,56.3159 45.5076,48.3159 46.5,40.5 Z"/></g>
<g><path style="opacity:1" fill="#c3dcdf" d="M 81.5,40.5 C 81.5,48.5 81.5,56.5 81.5,64.5C 86.5,64.5 91.5,64.5 96.5,64.5C 96.5,64.8333 96.5,65.1667 96.5,65.5C 90.9738,65.8214 85.6405,65.4881 80.5,64.5C 80.1743,56.3159 80.5076,48.3159 81.5,40.5 Z"/></g>
<g><path style="opacity:1" fill="#86b8bf" d="M 79.5,64.5 C 79.8333,64.5 80.1667,64.5 80.5,64.5C 85.6405,65.4881 90.9738,65.8214 96.5,65.5C 91.0247,66.4889 85.358,66.8222 79.5,66.5C 79.5,65.8333 79.5,65.1667 79.5,64.5 Z"/></g>
<g><path style="opacity:1" fill="#549ba4" d="M 98.5,64.5 C 98.8333,64.5 99.1667,64.5 99.5,64.5C 99.4226,65.7498 98.756,66.5831 97.5,67C 91.3188,67.8192 85.3188,67.6525 79.5,66.5C 85.358,66.8222 91.0247,66.4889 96.5,65.5C 97.4916,65.6716 98.1583,65.3382 98.5,64.5 Z"/></g>
<g><path style="opacity:1" fill="#3a8b96" d="M 46.5,67.5 C 52.4254,67.8082 58.2588,67.4749 64,66.5C 64.4998,57.5062 64.6664,48.5062 64.5,39.5C 65.2216,39.0825 65.7216,38.4158 66,37.5C 66.414,37.9574 66.914,38.2907 67.5,38.5C 68.6654,47.8155 68.8321,57.1489 68,66.5C 66.9887,67.3366 65.8221,67.67 64.5,67.5C 64.6399,69.1238 63.9733,70.2904 62.5,71C 56.5092,71.4995 50.5092,71.6662 44.5,71.5C 44.1568,69.5168 44.8235,68.1834 46.5,67.5 Z"/></g>
<g><path style="opacity:0.271" fill="#b5d4d7" d="M 196.5,202.5 C 196.5,201.833 196.5,201.167 196.5,200.5C 197.499,159.67 197.832,118.67 197.5,77.5C 195.901,77.2322 194.568,77.5655 193.5,78.5C 191.297,78.6036 189.297,79.2702 187.5,80.5C 185.565,81.1495 183.565,81.4828 181.5,81.5C 186.92,77.9731 192.92,75.9731 199.5,75.5C 199.5,117.833 199.5,160.167 199.5,202.5C 198.5,202.5 197.5,202.5 196.5,202.5 Z"/></g>
<g><path style="opacity:1" fill="#398b95" d="M 64.5,105.5 C 64.5,97.1667 64.5,88.8333 64.5,80.5C 65.1499,80.1961 65.8165,79.8627 66.5,79.5C 67.6653,88.4815 67.832,97.4815 67,106.5C 65.841,107.566 65.0076,107.233 64.5,105.5 Z"/></g>
<g><path style="opacity:0.973" fill="#579ca6" d="M 191.5,80.5 C 192.568,79.5655 193.901,79.2322 195.5,79.5C 195.5,119.833 195.5,160.167 195.5,200.5C 181.5,200.5 167.5,200.5 153.5,200.5C 153.5,200.167 153.5,199.833 153.5,199.5C 153.833,199.5 154.167,199.5 154.5,199.5C 167.5,199.5 180.5,199.5 193.5,199.5C 194.499,160.004 194.832,120.337 194.5,80.5C 193.5,80.5 192.5,80.5 191.5,80.5 Z"/></g>
<g><path style="opacity:1" fill="#60a2aa" d="M 64.5,80.5 C 64.5,88.8333 64.5,97.1667 64.5,105.5C 64.1667,105.5 63.8333,105.5 63.5,105.5C 63.8261,96.9832 63.4927,88.6499 62.5,80.5C 62.5,79.8333 62.1667,79.5 61.5,79.5C 56.0992,78.1752 50.5992,78.1752 45,79.5C 44.5003,87.8267 44.3336,96.16 44.5,104.5C 43.3431,96.0099 43.1764,87.3433 44,78.5C 50.0844,77.358 56.2511,77.1913 62.5,78C 63.3805,78.7083 64.0472,79.5416 64.5,80.5 Z"/></g>
<g><path style="opacity:1" fill="#318691" d="M 100.5,80.5 C 101.824,84.107 102.491,88.107 102.5,92.5C 102.167,96.5 101.833,100.5 101.5,104.5C 100.502,96.5277 100.169,88.5277 100.5,80.5 Z"/></g>
<g><path style="opacity:0.847" fill="#74adb5" d="M 193.5,78.5 C 194.5,78.5 195.5,78.5 196.5,78.5C 196.5,119.167 196.5,159.833 196.5,200.5C 196.167,200.5 195.833,200.5 195.5,200.5C 195.5,160.167 195.5,119.833 195.5,79.5C 193.901,79.2322 192.568,79.5655 191.5,80.5C 188.258,82.408 184.924,84.0747 181.5,85.5C 179.097,85.448 176.764,85.7814 174.5,86.5C 178.833,84.5 183.167,82.5 187.5,80.5C 189.297,79.2702 191.297,78.6036 193.5,78.5 Z"/></g>
<g><path style="opacity:0.643" fill="#96c1c6" d="M 193.5,78.5 C 194.568,77.5655 195.901,77.2322 197.5,77.5C 197.832,118.67 197.499,159.67 196.5,200.5C 196.5,159.833 196.5,119.167 196.5,78.5C 195.5,78.5 194.5,78.5 193.5,78.5 Z"/></g>
<g><path style="opacity:1" fill="#3c8c97" d="M 191.5,80.5 C 192.5,80.5 193.5,80.5 194.5,80.5C 194.832,120.337 194.499,160.004 193.5,199.5C 187.369,198.17 180.869,197.503 174,197.5C 167.131,197.503 160.631,198.17 154.5,199.5C 154.167,199.5 153.833,199.5 153.5,199.5C 153.5,198.5 153.5,197.5 153.5,196.5C 154.495,185.012 154.828,173.345 154.5,161.5C 155.766,159.502 157.432,159.502 159.5,161.5C 158.697,172.515 158.364,183.515 158.5,194.5C 169.146,195.499 179.813,195.832 190.5,195.5C 188.607,189.013 187.607,182.179 187.5,175C 187.667,170.833 187.833,166.667 188,162.5C 189.995,159.703 190.828,156.537 190.5,153C 188.58,146.678 187.58,140.012 187.5,133C 187.667,128.833 187.833,124.667 188,120.5C 188.915,119.672 189.581,118.672 190,117.5C 190.5,106.839 190.667,96.1719 190.5,85.5C 188.253,85.9153 186.086,86.5819 184,87.5C 182.624,87.3158 181.791,86.6491 181.5,85.5C 184.924,84.0747 188.258,82.408 191.5,80.5 Z"/></g>
<g><path style="opacity:1" fill="#79b0b7" d="M 81.5,78.5 C 86.6946,78.1795 91.6946,78.5128 96.5,79.5C 90.9738,79.1786 85.6405,79.5119 80.5,80.5C 79.5076,88.3159 79.1743,96.3159 79.5,104.5C 78.3434,96.3437 78.1768,88.0104 79,79.5C 79.6708,78.7476 80.5041,78.4142 81.5,78.5 Z"/></g>
<g><path style="opacity:0.224" fill="#9dc5ca" d="M 187.5,80.5 C 183.167,82.5 178.833,84.5 174.5,86.5C 174.167,86.5 173.833,86.5 173.5,86.5C 171.181,86.9925 169.181,87.9925 167.5,89.5C 166.391,89.5569 165.391,89.8902 164.5,90.5C 163.833,90.5 163.167,90.5 162.5,90.5C 164.5,89.1667 166.5,87.8333 168.5,86.5C 172.52,84.2172 176.853,82.5505 181.5,81.5C 183.565,81.4828 185.565,81.1495 187.5,80.5 Z"/></g>
<g><path style="opacity:1" fill="#8fbdc3" d="M 61.5,79.5 C 56.3054,79.1795 51.3054,79.5128 46.5,80.5C 45.5076,88.3159 45.1743,96.3159 45.5,104.5C 45.1667,104.5 44.8333,104.5 44.5,104.5C 44.3336,96.16 44.5003,87.8267 45,79.5C 50.5992,78.1752 56.0992,78.1752 61.5,79.5 Z"/></g>
<g><path style="opacity:1" fill="#bfd9dd" d="M 46.5,80.5 C 46.1746,88.3516 46.508,96.0182 47.5,103.5C 47.5,103.833 47.5,104.167 47.5,104.5C 46.8333,104.5 46.1667,104.5 45.5,104.5C 45.1743,96.3159 45.5076,88.3159 46.5,80.5 Z"/></g>
<g><path style="opacity:1" fill="#c0dadd" d="M 46.5,80.5 C 51.3054,79.5128 56.3054,79.1795 61.5,79.5C 62.1667,79.5 62.5,79.8333 62.5,80.5C 62.8257,88.6841 62.4924,96.6841 61.5,104.5C 61.5,96.5 61.5,88.5 61.5,80.5C 56.5,80.5 51.5,80.5 46.5,80.5 Z"/></g>
<g><path style="opacity:1" fill="#8bbbc0" d="M 62.5,80.5 C 63.4927,88.6499 63.8261,96.9832 63.5,105.5C 62.8333,105.833 62.1667,106.167 61.5,106.5C 56.4889,106.666 51.4889,106.499 46.5,106C 45.944,105.617 45.6107,105.117 45.5,104.5C 46.1667,104.5 46.8333,104.5 47.5,104.5C 52.1667,105.833 56.8333,105.833 61.5,104.5C 62.4924,96.6841 62.8257,88.6841 62.5,80.5 Z"/></g>
<g><path style="opacity:1" fill="#398a95" d="M 75.5,78.5 C 76.1174,78.6107 76.6174,78.944 77,79.5C 77.832,88.5185 77.6653,97.5185 76.5,106.5C 75.914,106.291 75.414,105.957 75,105.5C 74.1965,96.4221 74.3631,87.4221 75.5,78.5 Z"/></g>
<g><path style="opacity:1" fill="#a3c9cd" d="M 80.5,80.5 C 80.1746,88.3516 80.508,96.0182 81.5,103.5C 86.3054,104.487 91.3054,104.821 96.5,104.5C 92.03,105.486 87.3633,105.819 82.5,105.5C 81.391,105.443 80.391,105.11 79.5,104.5C 79.1743,96.3159 79.5076,88.3159 80.5,80.5 Z"/></g>
<g><path style="opacity:1" fill="#c8dfe2" d="M 96.5,79.5 C 97.1667,79.5 97.5,79.8333 97.5,80.5C 97.8257,88.6841 97.4924,96.6841 96.5,104.5C 96.5,96.5 96.5,88.5 96.5,80.5C 91.5,80.5 86.5,80.5 81.5,80.5C 81.5,88.1667 81.5,95.8333 81.5,103.5C 80.508,96.0182 80.1746,88.3516 80.5,80.5C 85.6405,79.5119 90.9738,79.1786 96.5,79.5 Z"/></g>
<g><path style="opacity:1" fill="#eaf3f3" d="M 96.5,104.5 C 91.3054,104.821 86.3054,104.487 81.5,103.5C 81.5,95.8333 81.5,88.1667 81.5,80.5C 86.5,80.5 91.5,80.5 96.5,80.5C 96.5,88.5 96.5,96.5 96.5,104.5 Z"/></g>
<g><path style="opacity:1" fill="#fefefe" d="M 82.5,81.5 C 86.8333,81.5 91.1667,81.5 95.5,81.5C 95.5,88.8333 95.5,96.1667 95.5,103.5C 91.1667,103.5 86.8333,103.5 82.5,103.5C 82.5,96.1667 82.5,88.8333 82.5,81.5 Z"/></g>
<g><path style="opacity:1" fill="#66a5ad" d="M 81.5,78.5 C 86.6503,77.3493 91.9836,77.1826 97.5,78C 98,78.5 98.5,79 99,79.5C 99.6667,88.5 99.6667,97.5 99,106.5C 92.9156,107.642 86.7489,107.809 80.5,107C 79.7476,106.329 79.4142,105.496 79.5,104.5C 80.391,105.11 81.391,105.443 82.5,105.5C 87.5673,106.824 92.734,106.824 98,105.5C 98.8232,96.9896 98.6566,88.6563 97.5,80.5C 97.5,79.8333 97.1667,79.5 96.5,79.5C 91.6946,78.5128 86.6946,78.1795 81.5,78.5 Z"/></g>
<g><path style="opacity:1" fill="#e1edee" d="M 46.5,80.5 C 51.5,80.5 56.5,80.5 61.5,80.5C 61.5,88.5 61.5,96.5 61.5,104.5C 56.8333,105.833 52.1667,105.833 47.5,104.5C 47.5,104.167 47.5,103.833 47.5,103.5C 46.508,96.0182 46.1746,88.3516 46.5,80.5 Z"/></g>
<g><path style="opacity:1" fill="#fefefe" d="M 47.5,103.5 C 47.5,96.1667 47.5,88.8333 47.5,81.5C 51.8333,81.5 56.1667,81.5 60.5,81.5C 60.5,88.8333 60.5,96.1667 60.5,103.5C 56.1667,103.5 51.8333,103.5 47.5,103.5 Z"/></g>
<g><path style="opacity:1" fill="#42909a" d="M 181.5,85.5 C 181.791,86.6491 182.624,87.3158 184,87.5C 186.086,86.5819 188.253,85.9153 190.5,85.5C 190.667,96.1719 190.5,106.839 190,117.5C 189.581,118.672 188.915,119.672 188,120.5C 187.833,124.667 187.667,128.833 187.5,133C 187.58,140.012 188.58,146.678 190.5,153C 190.828,156.537 189.995,159.703 188,162.5C 187.833,166.667 187.667,170.833 187.5,175C 187.607,182.179 188.607,189.013 190.5,195.5C 179.813,195.832 169.146,195.499 158.5,194.5C 158.364,183.515 158.697,172.515 159.5,161.5C 157.432,159.502 155.766,159.502 154.5,161.5C 153.733,160.828 153.066,159.995 152.5,159C 146.167,158.333 139.833,158.333 133.5,159C 132.944,159.383 132.611,159.883 132.5,160.5C 131.175,159.047 130.342,159.381 130,161.5C 129.574,173.312 129.407,184.979 129.5,196.5C 128.5,197.833 127.5,197.833 126.5,196.5C 125.509,167.574 125.175,138.574 125.5,109.5C 128.664,109.434 131.498,108.434 134,106.5C 135.868,107.71 137.368,107.21 138.5,105C 142.529,103.609 146.529,102.275 150.5,101C 151.167,100.333 151.833,99.6667 152.5,99C 163.068,97.7118 172.401,93.7118 180.5,87C 177.078,87.3215 173.745,88.1549 170.5,89.5C 171.9,88.8999 172.9,87.8999 173.5,86.5C 173.833,86.5 174.167,86.5 174.5,86.5C 176.764,85.7814 179.097,85.448 181.5,85.5 Z"/></g>
<g><path style="opacity:0.973" fill="#66a4ad" d="M 173.5,86.5 C 172.9,87.8999 171.9,88.8999 170.5,89.5C 169.5,89.5 168.5,89.5 167.5,89.5C 169.181,87.9925 171.181,86.9925 173.5,86.5 Z"/></g>
<g><path style="opacity:0.749" fill="#72acb3" d="M 162.5,90.5 C 163.167,90.5 163.833,90.5 164.5,90.5C 162.157,91.3443 159.824,92.3443 157.5,93.5C 157.5,93.1667 157.5,92.8333 157.5,92.5C 158.82,91.0582 160.486,90.3915 162.5,90.5 Z"/></g>
<g><path style="opacity:0.218" fill="#b5d4d7" d="M 168.5,86.5 C 166.5,87.8333 164.5,89.1667 162.5,90.5C 160.486,90.3915 158.82,91.0582 157.5,92.5C 154.369,91.9078 152.036,92.9078 150.5,95.5C 147.169,95.0181 144.503,96.0181 142.5,98.5C 141.209,98.7373 140.209,98.404 139.5,97.5C 148.789,93.0839 158.456,89.4172 168.5,86.5 Z"/></g>
<g><path style="opacity:0.518" fill="#91bec4" d="M 157.5,92.5 C 157.5,92.8333 157.5,93.1667 157.5,93.5C 155.302,93.1201 153.635,93.7868 152.5,95.5C 151.833,95.5 151.167,95.5 150.5,95.5C 152.036,92.9078 154.369,91.9078 157.5,92.5 Z"/></g>
<g><path style="opacity:0.847" fill="#61a2aa" d="M 157.5,93.5 C 156.07,94.5375 154.403,95.2041 152.5,95.5C 153.635,93.7868 155.302,93.1201 157.5,93.5 Z"/></g>
<g><path style="opacity:0.999" fill="#418f9a" d="M 125.5,109.5 C 126.398,108.842 127.398,108.176 128.5,107.5C 128.167,107.167 127.833,106.833 127.5,106.5C 125.929,107.309 124.262,107.643 122.5,107.5C 122.5,136.833 122.5,166.167 122.5,195.5C 122.5,196.833 122.5,198.167 122.5,199.5C 121.502,169.005 121.169,138.338 121.5,107.5C 121.5,107.167 121.5,106.833 121.5,106.5C 121.833,106.5 122.167,106.5 122.5,106.5C 124.801,105.94 127.134,105.44 129.5,105C 130.056,104.617 130.389,104.117 130.5,103.5C 134.346,102.667 138.179,101.667 142,100.5C 143.376,100.316 144.209,99.6491 144.5,98.5C 146.412,97.2008 148.412,96.2008 150.5,95.5C 151.167,95.5 151.833,95.5 152.5,95.5C 154.403,95.2041 156.07,94.5375 157.5,93.5C 159.824,92.3443 162.157,91.3443 164.5,90.5C 165.391,89.8902 166.391,89.5569 167.5,89.5C 168.5,89.5 169.5,89.5 170.5,89.5C 173.745,88.1549 177.078,87.3215 180.5,87C 172.401,93.7118 163.068,97.7118 152.5,99C 151.833,99.6667 151.167,100.333 150.5,101C 146.529,102.275 142.529,103.609 138.5,105C 137.368,107.21 135.868,107.71 134,106.5C 131.498,108.434 128.664,109.434 125.5,109.5 Z"/></g>
<g><path style="opacity:0.667" fill="#81b5bb" d="M 150.5,95.5 C 148.412,96.2008 146.412,97.2008 144.5,98.5C 143.833,98.5 143.167,98.5 142.5,98.5C 144.503,96.0181 147.169,95.0181 150.5,95.5 Z"/></g>
<g><path style="opacity:0.539" fill="#8dbbc2" d="M 137.5,97.5 C 138.167,97.5 138.833,97.5 139.5,97.5C 140.209,98.404 141.209,98.7373 142.5,98.5C 140.972,99.3092 139.306,99.9759 137.5,100.5C 137.5,99.5 137.5,98.5 137.5,97.5 Z"/></g>
<g><path style="opacity:0.22" fill="#b1d1d5" d="M 137.5,97.5 C 137.5,98.5 137.5,99.5 137.5,100.5C 135.079,100.878 132.746,101.545 130.5,102.5C 129.833,102.5 129.5,102.167 129.5,101.5C 131.91,99.8754 134.577,98.542 137.5,97.5 Z"/></g>
<g><path style="opacity:0.165" fill="#b6d4d8" d="M 128.5,101.5 C 128.027,102.906 127.027,103.573 125.5,103.5C 125.973,102.094 126.973,101.427 128.5,101.5 Z"/></g>
<g><path style="opacity:0.894" fill="#5fa0a9" d="M 142.5,98.5 C 143.167,98.5 143.833,98.5 144.5,98.5C 144.209,99.6491 143.376,100.316 142,100.5C 138.179,101.667 134.346,102.667 130.5,103.5C 130.5,103.167 130.5,102.833 130.5,102.5C 132.746,101.545 135.079,100.878 137.5,100.5C 139.306,99.9759 140.972,99.3092 142.5,98.5 Z"/></g>
<g><path style="opacity:0.58" fill="#9ac3c9" d="M 128.5,101.5 C 128.833,101.5 129.167,101.5 129.5,101.5C 129.5,102.167 129.833,102.5 130.5,102.5C 130.5,102.833 130.5,103.167 130.5,103.5C 128.199,104.06 125.866,104.56 123.5,105C 122.944,105.383 122.611,105.883 122.5,106.5C 122.167,106.5 121.833,106.5 121.5,106.5C 121.5,105.5 121.5,104.5 121.5,103.5C 122.833,103.5 124.167,103.5 125.5,103.5C 127.027,103.573 128.027,102.906 128.5,101.5 Z"/></g>
<g><path style="opacity:1" fill="#90bec3" d="M 97.5,80.5 C 98.6566,88.6563 98.8232,96.9896 98,105.5C 92.734,106.824 87.5673,106.824 82.5,105.5C 87.3633,105.819 92.03,105.486 96.5,104.5C 97.4924,96.6841 97.8257,88.6841 97.5,80.5 Z"/></g>
<g><path style="opacity:0.784" fill="#6ea9b1" d="M 130.5,103.5 C 130.389,104.117 130.056,104.617 129.5,105C 127.134,105.44 124.801,105.94 122.5,106.5C 122.611,105.883 122.944,105.383 123.5,105C 125.866,104.56 128.199,104.06 130.5,103.5 Z"/></g>
<g><path style="opacity:1" fill="#65a5ad" d="M 44.5,104.5 C 44.8333,104.5 45.1667,104.5 45.5,104.5C 45.6107,105.117 45.944,105.617 46.5,106C 51.4889,106.499 56.4889,106.666 61.5,106.5C 56.3497,107.651 51.0164,107.817 45.5,107C 44.7476,106.329 44.4142,105.496 44.5,104.5 Z"/></g>
<g><path style="opacity:0.082" fill="#bfd8dd" d="M 121.5,103.5 C 121.5,104.5 121.5,105.5 121.5,106.5C 121.5,106.833 121.5,107.167 121.5,107.5C 120.833,107.5 120.5,107.833 120.5,108.5C 119.833,137.833 119.167,167.167 118.5,196.5C 118.333,166.165 118.5,135.832 119,105.5C 119.708,104.619 120.542,103.953 121.5,103.5 Z"/></g>
<g><path style="opacity:0.314" fill="#abcdd2" d="M 120.5,108.5 C 120.333,139.168 120.5,169.835 121,200.5C 125.267,201.822 129.434,201.822 133.5,200.5C 134.461,198.735 134.795,196.735 134.5,194.5C 135.167,194.833 135.833,195.167 136.5,195.5C 136.5,197.833 136.5,200.167 136.5,202.5C 130.5,202.5 124.5,202.5 118.5,202.5C 118.5,200.5 118.5,198.5 118.5,196.5C 119.167,167.167 119.833,137.833 120.5,108.5 Z"/></g>
<g><path style="opacity:0.612" fill="#82b5bc" d="M 121.5,107.5 C 121.169,138.338 121.502,169.005 122.5,199.5C 125.962,200.482 129.629,200.815 133.5,200.5C 129.434,201.822 125.267,201.822 121,200.5C 120.5,169.835 120.333,139.168 120.5,108.5C 120.5,107.833 120.833,107.5 121.5,107.5 Z"/></g>
<g><path style="opacity:1" fill="#358893" d="M 125.5,109.5 C 125.175,138.574 125.509,167.574 126.5,196.5C 124.673,167.517 123.839,138.184 124,108.5C 123.832,137.67 123.332,166.67 122.5,195.5C 122.5,166.167 122.5,136.833 122.5,107.5C 124.262,107.643 125.929,107.309 127.5,106.5C 127.833,106.833 128.167,107.167 128.5,107.5C 127.398,108.176 126.398,108.842 125.5,109.5 Z"/></g>
<g><path style="opacity:1" fill="#2e838f" d="M 126.5,196.5 C 127.5,197.833 128.5,197.833 129.5,196.5C 130.5,196.5 131.5,196.5 132.5,196.5C 132.5,197.5 132.5,198.5 132.5,199.5C 129.167,199.5 125.833,199.5 122.5,199.5C 122.5,198.167 122.5,196.833 122.5,195.5C 123.332,166.67 123.832,137.67 124,108.5C 123.839,138.184 124.673,167.517 126.5,196.5 Z"/></g>
<g><path style="opacity:1" fill="#378a95" d="M 45.5,113.5 C 51.1764,113.334 56.8431,113.501 62.5,114C 62.9574,114.414 63.2907,114.914 63.5,115.5C 57.1667,116.833 50.8333,116.833 44.5,115.5C 44.8627,114.817 45.1961,114.15 45.5,113.5 Z"/></g>
<g><path style="opacity:1" fill="#378a95" d="M 80.5,113.5 C 86.5,113.5 92.5,113.5 98.5,113.5C 98.5,114.5 98.5,115.5 98.5,116.5C 92.1318,116.83 85.7985,116.496 79.5,115.5C 79.8627,114.817 80.1961,114.15 80.5,113.5 Z"/></g>
<g><path style="opacity:1" fill="#378a95" d="M 134.5,113.5 C 140.952,113.084 147.285,113.584 153.5,115C 150.184,116.13 146.684,116.63 143,116.5C 139.833,116.167 136.667,115.833 133.5,115.5C 133.863,114.817 134.196,114.15 134.5,113.5 Z"/></g>
<g><path style="opacity:1" fill="#378a95" d="M 167.5,113.5 C 173.176,113.334 178.843,113.501 184.5,114C 184.957,114.414 185.291,114.914 185.5,115.5C 179.167,116.833 172.833,116.833 166.5,115.5C 166.863,114.817 167.196,114.15 167.5,113.5 Z"/></g>
<g><path style="opacity:1" fill="#78afb7" d="M 150.5,118.5 C 145.238,118.195 140.072,118.529 135,119.5C 134.5,127.827 134.334,136.16 134.5,144.5C 133.507,136.016 133.174,127.349 133.5,118.5C 139.266,117.196 144.933,117.196 150.5,118.5 Z"/></g>
<g><path style="opacity:1" fill="#93c0c5" d="M 61.5,118.5 C 62.1174,118.611 62.6174,118.944 63,119.5C 63.4997,127.827 63.6664,136.16 63.5,144.5C 63.1667,144.5 62.8333,144.5 62.5,144.5C 62.8257,136.316 62.4924,128.316 61.5,120.5C 56.4327,119.176 51.266,119.176 46,120.5C 45.5003,128.493 45.3336,136.493 45.5,144.5C 45.1667,144.5 44.8333,144.5 44.5,144.5C 44.3336,136.16 44.5003,127.827 45,119.5C 50.4066,118.527 55.9066,118.193 61.5,118.5 Z"/></g>
<g><path style="opacity:1" fill="#358993" d="M 132.5,118.5 C 132.5,127.167 132.5,135.833 132.5,144.5C 130.908,145.602 130.075,144.935 130,142.5C 129.333,135.833 129.333,129.167 130,122.5C 130.122,120.563 130.955,119.23 132.5,118.5 Z"/></g>
<g><path style="opacity:1" fill="#6ea9b1" d="M 183.5,118.5 C 178.489,118.334 173.489,118.501 168.5,119C 167.944,119.383 167.611,119.883 167.5,120.5C 167.167,120.5 166.833,120.5 166.5,120.5C 166.414,119.504 166.748,118.671 167.5,118C 173.016,117.183 178.35,117.349 183.5,118.5 Z"/></g>
<g><path style="opacity:1" fill="#378994" d="M 162.5,118.5 C 163.5,118.5 164.5,118.5 165.5,118.5C 165.5,127.833 165.5,137.167 165.5,146.5C 164.5,146.5 163.5,146.5 162.5,146.5C 162.5,137.167 162.5,127.833 162.5,118.5 Z"/></g>
<g><path style="opacity:1" fill="#589da5" d="M 61.5,118.5 C 61.5,118.167 61.5,117.833 61.5,117.5C 62.4959,117.414 63.3292,117.748 64,118.5C 64.8236,127.343 64.6569,136.01 63.5,144.5C 63.6664,136.16 63.4997,127.827 63,119.5C 62.6174,118.944 62.1174,118.611 61.5,118.5 Z"/></g>
<g><path style="opacity:1" fill="#6da9b1" d="M 96.5,118.5 C 90.9066,118.193 85.4066,118.527 80,119.5C 79.5003,127.827 79.3336,136.16 79.5,144.5C 78.3431,136.01 78.1764,127.343 79,118.5C 84.9323,117.175 90.7657,117.175 96.5,118.5 Z"/></g>
<g><path style="opacity:1" fill="#318691" d="M 100.5,120.5 C 101.824,124.107 102.491,128.107 102.5,132.5C 102.167,136.5 101.833,140.5 101.5,144.5C 100.502,136.528 100.169,128.528 100.5,120.5 Z"/></g>
<g><path style="opacity:1" fill="#569ca5" d="M 132.5,118.5 C 132.833,118.5 133.167,118.5 133.5,118.5C 133.174,127.349 133.507,136.016 134.5,144.5C 134.611,145.117 134.944,145.617 135.5,146C 140.917,146.781 146.25,146.615 151.5,145.5C 151.833,145.5 152.167,145.5 152.5,145.5C 149.913,146.816 146.913,147.483 143.5,147.5C 140.5,147.333 137.5,147.167 134.5,147C 133.619,146.292 132.953,145.458 132.5,144.5C 132.5,135.833 132.5,127.167 132.5,118.5 Z"/></g>
<g><path style="opacity:1" fill="#63a3ab" d="M 183.5,118.5 C 184.5,118.5 185.5,118.5 186.5,118.5C 186.666,127.839 186.5,137.173 186,146.5C 182.751,147.147 179.418,147.481 176,147.5C 172.424,147.485 169.258,146.818 166.5,145.5C 167.167,145.833 167.833,146.167 168.5,146.5C 174.093,146.807 179.593,146.473 185,145.5C 185.823,136.99 185.657,128.656 184.5,120.5C 184.167,119.833 183.833,119.167 183.5,118.5 Z"/></g>
<g><path style="opacity:1" fill="#82b6bc" d="M 166.5,120.5 C 166.833,120.5 167.167,120.5 167.5,120.5C 167.174,128.684 167.508,136.684 168.5,144.5C 168.5,144.833 168.5,145.167 168.5,145.5C 168.5,145.833 168.5,146.167 168.5,146.5C 167.833,146.167 167.167,145.833 166.5,145.5C 166.5,137.167 166.5,128.833 166.5,120.5 Z"/></g>
<g><path style="opacity:1" fill="#bad6da" d="M 150.5,118.5 C 151.471,127.416 151.804,136.416 151.5,145.5C 146.25,146.615 140.917,146.781 135.5,146C 134.944,145.617 134.611,145.117 134.5,144.5C 134.334,136.16 134.5,127.827 135,119.5C 140.072,118.529 145.238,118.195 150.5,118.5 Z"/></g>
<g><path style="opacity:1" fill="#fdfefe" d="M 136.5,120.5 C 141.032,120.182 145.366,120.515 149.5,121.5C 149.5,128.833 149.5,136.167 149.5,143.5C 145.167,143.5 140.833,143.5 136.5,143.5C 136.5,135.833 136.5,128.167 136.5,120.5 Z"/></g>
<g><path style="opacity:1" fill="#edf4f5" d="M 136.5,120.5 C 136.5,128.167 136.5,135.833 136.5,143.5C 140.833,143.5 145.167,143.5 149.5,143.5C 149.5,136.167 149.5,128.833 149.5,121.5C 150.492,128.982 150.825,136.648 150.5,144.5C 145.5,144.5 140.5,144.5 135.5,144.5C 135.174,136.316 135.508,128.316 136.5,120.5 Z"/></g>
<g><path style="opacity:1" fill="#e6f0f1" d="M 183.5,144.5 C 178.695,145.487 173.695,145.821 168.5,145.5C 168.5,145.167 168.5,144.833 168.5,144.5C 168.5,136.5 168.5,128.5 168.5,120.5C 173.5,120.5 178.5,120.5 183.5,120.5C 183.5,128.5 183.5,136.5 183.5,144.5 Z"/></g>
<g><path style="opacity:1" fill="#bcd8db" d="M 183.5,118.5 C 183.833,119.167 184.167,119.833 184.5,120.5C 184.826,128.684 184.492,136.684 183.5,144.5C 183.5,136.5 183.5,128.5 183.5,120.5C 178.5,120.5 173.5,120.5 168.5,120.5C 168.5,128.5 168.5,136.5 168.5,144.5C 167.508,136.684 167.174,128.684 167.5,120.5C 167.611,119.883 167.944,119.383 168.5,119C 173.489,118.501 178.489,118.334 183.5,118.5 Z"/></g>
<g><path style="opacity:1" fill="#fefefe" d="M 169.5,121.5 C 173.833,121.5 178.167,121.5 182.5,121.5C 182.5,128.833 182.5,136.167 182.5,143.5C 178.167,143.5 173.833,143.5 169.5,143.5C 169.5,136.167 169.5,128.833 169.5,121.5 Z"/></g>
<g><path style="opacity:1" fill="#bcd8db" d="M 61.5,120.5 C 62.4924,128.316 62.8257,136.316 62.5,144.5C 62.3893,145.117 62.056,145.617 61.5,146C 56.5,146.667 51.5,146.667 46.5,146C 45.944,145.617 45.6107,145.117 45.5,144.5C 45.3336,136.493 45.5003,128.493 46,120.5C 51.266,119.176 56.4327,119.176 61.5,120.5 Z"/></g>
<g><path style="opacity:1" fill="#cce1e4" d="M 81.5,120.5 C 86.3054,119.513 91.3054,119.179 96.5,119.5C 97.1667,119.5 97.5,119.833 97.5,120.5C 97.8257,128.684 97.4924,136.684 96.5,144.5C 96.5,136.5 96.5,128.5 96.5,120.5C 91.5,120.5 86.5,120.5 81.5,120.5 Z"/></g>
<g><path style="opacity:1" fill="#64a4ac" d="M 96.5,119.5 C 96.5,119.167 96.5,118.833 96.5,118.5C 97.5,118.5 98.5,118.5 99.5,118.5C 99.6665,127.839 99.4998,137.173 99,146.5C 92.4013,147.826 85.9013,147.826 79.5,146.5C 85.7576,146.81 91.9242,146.476 98,145.5C 98.8232,136.99 98.6566,128.656 97.5,120.5C 97.5,119.833 97.1667,119.5 96.5,119.5 Z"/></g>
<g><path style="opacity:1" fill="#94c0c5" d="M 184.5,120.5 C 185.657,128.656 185.823,136.99 185,145.5C 179.593,146.473 174.093,146.807 168.5,146.5C 168.5,146.167 168.5,145.833 168.5,145.5C 173.695,145.821 178.695,145.487 183.5,144.5C 184.492,136.684 184.826,128.684 184.5,120.5 Z"/></g>
<g><path style="opacity:1" fill="#65a4ad" d="M 61.5,117.5 C 61.5,117.833 61.5,118.167 61.5,118.5C 55.9066,118.193 50.4066,118.527 45,119.5C 44.5003,127.827 44.3336,136.16 44.5,144.5C 43.3431,136.01 43.1764,127.343 44,118.5C 49.7412,117.525 55.5746,117.192 61.5,117.5 Z"/></g>
<g><path style="opacity:1" fill="#e9f2f3" d="M 61.5,120.5 C 61.5,128.5 61.5,136.5 61.5,144.5C 56.5,144.5 51.5,144.5 46.5,144.5C 46.1746,136.648 46.508,128.982 47.5,121.5C 51.97,120.514 56.6367,120.181 61.5,120.5 Z"/></g>
<g><path style="opacity:1" fill="#fefefe" d="M 47.5,121.5 C 51.8333,121.5 56.1667,121.5 60.5,121.5C 60.5,128.833 60.5,136.167 60.5,143.5C 56.1667,143.5 51.8333,143.5 47.5,143.5C 47.5,136.167 47.5,128.833 47.5,121.5 Z"/></g>
<g><path style="opacity:1" fill="#75aeb5" d="M 150.5,118.5 C 151.5,118.5 152.5,118.5 153.5,118.5C 153.827,127.682 153.493,136.682 152.5,145.5C 152.167,145.5 151.833,145.5 151.5,145.5C 151.804,136.416 151.471,127.416 150.5,118.5 Z"/></g>
<g><path style="opacity:1" fill="#97c2c7" d="M 96.5,118.5 C 96.5,118.833 96.5,119.167 96.5,119.5C 91.3054,119.179 86.3054,119.513 81.5,120.5C 80.5073,128.65 80.1739,136.983 80.5,145.5C 86.0262,145.821 91.3595,145.488 96.5,144.5C 97.4924,136.684 97.8257,128.684 97.5,120.5C 98.6566,128.656 98.8232,136.99 98,145.5C 91.9242,146.476 85.7576,146.81 79.5,146.5C 79.5,145.833 79.5,145.167 79.5,144.5C 79.3336,136.16 79.5003,127.827 80,119.5C 85.4066,118.527 90.9066,118.193 96.5,118.5 Z"/></g>
<g><path style="opacity:1" fill="#c9e0e2" d="M 81.5,120.5 C 81.5,128.5 81.5,136.5 81.5,144.5C 86.5,144.5 91.5,144.5 96.5,144.5C 91.3595,145.488 86.0262,145.821 80.5,145.5C 80.1739,136.983 80.5073,128.65 81.5,120.5 Z"/></g>
<g><path style="opacity:1" fill="#eef5f6" d="M 81.5,120.5 C 86.5,120.5 91.5,120.5 96.5,120.5C 96.5,128.5 96.5,136.5 96.5,144.5C 91.5,144.5 86.5,144.5 81.5,144.5C 81.5,136.5 81.5,128.5 81.5,120.5 Z"/></g>
<g><path style="opacity:1" fill="#fefefe" d="M 82.5,121.5 C 86.8333,121.5 91.1667,121.5 95.5,121.5C 95.5,128.833 95.5,136.167 95.5,143.5C 91.1667,143.5 86.8333,143.5 82.5,143.5C 82.5,136.167 82.5,128.833 82.5,121.5 Z"/></g>
<g><path style="opacity:1" fill="#5ea1a8" d="M 44.5,144.5 C 44.8333,144.5 45.1667,144.5 45.5,144.5C 45.6107,145.117 45.944,145.617 46.5,146C 51.5,146.667 56.5,146.667 61.5,146C 62.056,145.617 62.3893,145.117 62.5,144.5C 62.8333,144.5 63.1667,144.5 63.5,144.5C 63.5,145.5 63.5,146.5 63.5,147.5C 57.1667,147.5 50.8333,147.5 44.5,147.5C 44.5,146.5 44.5,145.5 44.5,144.5 Z"/></g>
<g><path style="opacity:1" fill="#348892" d="M 45.5,149.5 C 50.6803,148.185 56.0136,148.185 61.5,149.5C 56.1143,150.782 50.781,150.782 45.5,149.5 Z"/></g>
<g><path style="opacity:1" fill="#358893" d="M 80.5,149.5 C 85.6803,148.185 91.0136,148.185 96.5,149.5C 91.1143,150.782 85.781,150.782 80.5,149.5 Z"/></g>
<g><path style="opacity:1" fill="#358892" d="M 134.5,149.5 C 139.68,148.185 145.014,148.185 150.5,149.5C 145.114,150.782 139.781,150.782 134.5,149.5 Z"/></g>
<g><path style="opacity:1" fill="#348892" d="M 168.5,148.5 C 173.544,148.173 178.544,148.506 183.5,149.5C 181,149.833 178.5,150.167 176,150.5C 173.071,150.475 170.571,149.809 168.5,148.5 Z"/></g>
<g><path style="opacity:1" fill="#3c8d97" d="M 64.5,186.5 C 65.1377,177.105 64.4711,168.105 62.5,159.5C 57.0149,158.673 51.3482,158.173 45.5,158C 43.5188,157.395 43.1854,156.395 44.5,155C 50.7482,154.812 56.9149,154.312 63,153.5C 65.3361,154.292 65.8361,155.625 64.5,157.5C 65.9337,158.23 67.1004,159.23 68,160.5C 68.4998,169.827 68.6665,179.161 68.5,188.5C 66.5168,188.843 65.1834,188.176 64.5,186.5 Z"/></g>
<g><path style="opacity:1" fill="#6ba8b0" d="M 45.5,160.5 C 50.9753,159.511 56.642,159.178 62.5,159.5C 63.1098,160.391 63.4431,161.391 63.5,162.5C 63.1667,162.5 62.8333,162.5 62.5,162.5C 62.5,161.833 62.1667,161.5 61.5,161.5C 56.3595,160.512 51.0262,160.179 45.5,160.5 Z"/></g>
<g><path style="opacity:1" fill="#6ba8b0" d="M 183.5,160.5 C 178.489,160.334 173.489,160.501 168.5,161C 167.956,161.717 167.289,162.217 166.5,162.5C 166.414,161.504 166.748,160.671 167.5,160C 173.016,159.183 178.35,159.349 183.5,160.5 Z"/></g>
<g><path style="opacity:1" fill="#8fbdc3" d="M 183.5,160.5 C 183.5,160.833 183.5,161.167 183.5,161.5C 178.637,161.181 173.97,161.514 169.5,162.5C 168.833,162.5 168.5,162.833 168.5,163.5C 167.508,170.982 167.175,178.648 167.5,186.5C 166.508,178.684 166.174,170.684 166.5,162.5C 167.289,162.217 167.956,161.717 168.5,161C 173.489,160.501 178.489,160.334 183.5,160.5 Z"/></g>
<g><path style="opacity:1" fill="#c1dadd" d="M 169.5,162.5 C 173.97,161.514 178.637,161.181 183.5,161.5C 183.5,162.167 183.5,162.833 183.5,163.5C 183.167,163.5 182.833,163.5 182.5,163.5C 178.366,162.515 174.032,162.182 169.5,162.5 Z"/></g>
<g><path style="opacity:0.589" fill="#77afb7" d="M 151.5,160.5 C 145.974,160.179 140.64,160.512 135.5,161.5C 134.505,172.321 134.172,183.321 134.5,194.5C 134.795,196.735 134.461,198.735 133.5,200.5C 133.333,187.163 133.5,173.829 134,160.5C 139.932,159.175 145.766,159.175 151.5,160.5 Z"/></g>
<g><path style="opacity:1" fill="#589da5" d="M 62.5,159.5 C 64.4711,168.105 65.1377,177.105 64.5,186.5C 64.1667,186.5 63.8333,186.5 63.5,186.5C 63.5,178.5 63.5,170.5 63.5,162.5C 63.4431,161.391 63.1098,160.391 62.5,159.5 Z"/></g>
<g><path style="opacity:0.99" fill="#4b969f" d="M 99.5,161.5 C 98.7109,161.217 98.0442,160.717 97.5,160C 91.2511,159.191 85.0844,159.358 79,160.5C 78.5001,173.496 78.3334,186.496 78.5,199.5C 78.1667,199.5 77.8333,199.5 77.5,199.5C 77.5,198.5 77.5,197.5 77.5,196.5C 77.5,184.833 77.5,173.167 77.5,161.5C 77.4142,160.504 77.7476,159.671 78.5,159C 85.1667,158.333 91.8333,158.333 98.5,159C 99.2524,159.671 99.5858,160.504 99.5,161.5 Z"/></g>
<g><path style="opacity:0.671" fill="#98c2c8" d="M 82.5,161.5 C 86.9811,160.352 91.6478,160.185 96.5,161C 97,161.5 97.5,162 98,162.5C 98.1692,175.007 98.6692,187.34 99.5,199.5C 103.5,200.833 107.5,200.833 111.5,199.5C 111.833,199.5 112.167,199.5 112.5,199.5C 109.452,201.119 106.119,202.119 102.5,202.5C 101.5,202.5 100.5,202.5 99.5,202.5C 99.2172,201.711 98.7172,201.044 98,200.5C 97.8308,187.993 97.3308,175.66 96.5,163.5C 96.3893,162.883 96.056,162.383 95.5,162C 91.1794,161.501 86.8461,161.334 82.5,161.5 Z"/></g>
<g><path style="opacity:1" fill="#398a95" d="M 132.5,160.5 C 132.5,172.5 132.5,184.5 132.5,196.5C 131.5,196.5 130.5,196.5 129.5,196.5C 129.407,184.979 129.574,173.312 130,161.5C 130.342,159.381 131.175,159.047 132.5,160.5 Z"/></g>
<g><path style="opacity:0.949" fill="#5299a3" d="M 154.5,161.5 C 154.828,173.345 154.495,185.012 153.5,196.5C 154.144,184.784 153.478,173.451 151.5,162.5C 151.5,161.833 151.5,161.167 151.5,160.5C 145.766,159.175 139.932,159.175 134,160.5C 133.5,173.829 133.333,187.163 133.5,200.5C 129.629,200.815 125.962,200.482 122.5,199.5C 125.833,199.5 129.167,199.5 132.5,199.5C 132.5,198.5 132.5,197.5 132.5,196.5C 132.5,184.5 132.5,172.5 132.5,160.5C 132.611,159.883 132.944,159.383 133.5,159C 139.833,158.333 146.167,158.333 152.5,159C 153.066,159.995 153.733,160.828 154.5,161.5 Z"/></g>
<g><path style="opacity:0.284" fill="#b8d6da" d="M 135.5,161.5 C 140.167,161.5 144.833,161.5 149.5,161.5C 149.5,162.5 149.5,163.5 149.5,164.5C 145.429,164.766 141.429,164.433 137.5,163.5C 136.614,164.325 136.281,165.325 136.5,166.5C 135.549,165.081 135.216,163.415 135.5,161.5 Z"/></g>
<g><path style="opacity:0.733" fill="#9ac4ca" d="M 135.5,161.5 C 140.64,160.512 145.974,160.179 151.5,160.5C 151.5,161.167 151.5,161.833 151.5,162.5C 150.833,162.167 150.167,161.833 149.5,161.5C 144.833,161.5 140.167,161.5 135.5,161.5 Z"/></g>
<g><path style="opacity:1" fill="#378994" d="M 164.5,159.5 C 165.657,168.324 165.824,177.324 165,186.5C 164.586,186.957 164.086,187.291 163.5,187.5C 161.907,177.926 162.24,168.592 164.5,159.5 Z"/></g>
<g><path style="opacity:1" fill="#63a3ac" d="M 44.5,162.5 C 44.1743,170.684 44.5076,178.684 45.5,186.5C 45.5,187.167 45.8333,187.5 46.5,187.5C 46.5,187.833 46.5,188.167 46.5,188.5C 45.5041,188.586 44.6708,188.252 44,187.5C 43.1768,178.99 43.3434,170.656 44.5,162.5 Z"/></g>
<g><path style="opacity:1" fill="#bad7da" d="M 168.5,163.5 C 168.5,171.167 168.5,178.833 168.5,186.5C 173.5,186.5 178.5,186.5 183.5,186.5C 183.5,186.833 183.5,187.167 183.5,187.5C 177.974,187.821 172.64,187.488 167.5,186.5C 167.175,178.648 167.508,170.982 168.5,163.5 Z"/></g>
<g><path style="opacity:0.354" fill="#b4d2d6" d="M 96.5,163.5 C 97.3308,175.66 97.8308,187.993 98,200.5C 98.7172,201.044 99.2172,201.711 99.5,202.5C 98.1667,202.5 96.8333,202.5 95.5,202.5C 94.1667,189.833 94.1667,177.167 95.5,164.5C 96.1667,164.5 96.5,164.167 96.5,163.5 Z"/></g>
<g><path style="opacity:1" fill="#e6f1f2" d="M 46.5,162.5 C 51.5,162.5 56.5,162.5 61.5,162.5C 61.5,170.5 61.5,178.5 61.5,186.5C 56.5,186.5 51.5,186.5 46.5,186.5C 46.5,178.5 46.5,170.5 46.5,162.5 Z"/></g>
<g><path style="opacity:1" fill="#fefefe" d="M 47.5,163.5 C 51.8333,163.5 56.1667,163.5 60.5,163.5C 60.5,170.833 60.5,178.167 60.5,185.5C 56.1667,185.5 51.8333,185.5 47.5,185.5C 47.5,178.167 47.5,170.833 47.5,163.5 Z"/></g>
<g><path style="opacity:1" fill="#bed9dc" d="M 46.5,162.5 C 51.3054,161.513 56.3054,161.179 61.5,161.5C 62.1667,161.5 62.5,161.833 62.5,162.5C 62.8257,170.684 62.4924,178.684 61.5,186.5C 61.5,178.5 61.5,170.5 61.5,162.5C 56.5,162.5 51.5,162.5 46.5,162.5 Z"/></g>
<g><path style="opacity:0.078" fill="#8dbbc2" d="M 135.5,161.5 C 135.216,163.415 135.549,165.081 136.5,166.5C 136.5,176.167 136.5,185.833 136.5,195.5C 135.833,195.167 135.167,194.833 134.5,194.5C 134.172,183.321 134.505,172.321 135.5,161.5 Z"/></g>
<g><path style="opacity:0.055" fill="#aacdd1" d="M 149.5,161.5 C 150.167,161.833 150.833,162.167 151.5,162.5C 150.853,175.544 151.52,188.211 153.5,200.5C 167.167,201.167 180.833,201.833 194.5,202.5C 179.5,202.5 164.5,202.5 149.5,202.5C 149.5,189.833 149.5,177.167 149.5,164.5C 149.5,163.5 149.5,162.5 149.5,161.5 Z"/></g>
<g><path style="opacity:0.518" fill="#85b7be" d="M 151.5,162.5 C 153.478,173.451 154.144,184.784 153.5,196.5C 153.5,197.5 153.5,198.5 153.5,199.5C 153.5,199.833 153.5,200.167 153.5,200.5C 151.52,188.211 150.853,175.544 151.5,162.5 Z"/></g>
<g><path style="opacity:1" fill="#8fbdc3" d="M 45.5,160.5 C 51.0262,160.179 56.3595,160.512 61.5,161.5C 56.3054,161.179 51.3054,161.513 46.5,162.5C 45.5076,170.316 45.1743,178.316 45.5,186.5C 44.5076,178.684 44.1743,170.684 44.5,162.5C 44.8333,161.833 45.1667,161.167 45.5,160.5 Z"/></g>
<g><path style="opacity:0.967" fill="#71abb2" d="M 99.5,161.5 C 99.5,174.167 99.5,186.833 99.5,199.5C 98.6692,187.34 98.1692,175.007 98,162.5C 97.5,162 97,161.5 96.5,161C 91.6478,160.185 86.9811,160.352 82.5,161.5C 81.8333,161.5 81.1667,161.5 80.5,161.5C 79.8333,174.5 79.1667,187.5 78.5,200.5C 78.5,200.167 78.5,199.833 78.5,199.5C 78.3334,186.496 78.5001,173.496 79,160.5C 85.0844,159.358 91.2511,159.191 97.5,160C 98.0442,160.717 98.7109,161.217 99.5,161.5 Z"/></g>
<g><path style="opacity:1" fill="#67a5ad" d="M 183.5,161.5 C 183.5,161.167 183.5,160.833 183.5,160.5C 184.5,160.5 185.5,160.5 186.5,160.5C 186.826,169.349 186.493,178.016 185.5,186.5C 185.666,178.493 185.5,170.493 185,162.5C 184.617,161.944 184.117,161.611 183.5,161.5 Z"/></g>
<g><path style="opacity:1" fill="#94c0c5" d="M 183.5,161.5 C 184.117,161.611 184.617,161.944 185,162.5C 185.5,170.493 185.666,178.493 185.5,186.5C 185.158,187.338 184.492,187.672 183.5,187.5C 183.5,187.167 183.5,186.833 183.5,186.5C 184.833,178.833 184.833,171.167 183.5,163.5C 183.5,162.833 183.5,162.167 183.5,161.5 Z"/></g>
<g><path style="opacity:0.343" fill="#b9d6da" d="M 80.5,161.5 C 81.1667,161.5 81.8333,161.5 82.5,161.5C 86.8461,161.334 91.1794,161.501 95.5,162C 96.056,162.383 96.3893,162.883 96.5,163.5C 96.5,164.167 96.1667,164.5 95.5,164.5C 91.5839,164.631 87.5839,164.298 83.5,163.5C 82.6919,163.808 82.0253,164.308 81.5,165C 82.8295,177.265 82.8295,189.431 81.5,201.5C 80.5192,188.246 80.1858,174.913 80.5,161.5 Z"/></g>
<g><path style="opacity:1" fill="#e2eeef" d="M 169.5,162.5 C 174.032,162.182 178.366,162.515 182.5,163.5C 182.833,163.5 183.167,163.5 183.5,163.5C 184.833,171.167 184.833,178.833 183.5,186.5C 178.5,186.5 173.5,186.5 168.5,186.5C 168.5,178.833 168.5,171.167 168.5,163.5C 168.5,162.833 168.833,162.5 169.5,162.5 Z"/></g>
<g><path style="opacity:1" fill="#fefefe" d="M 182.5,163.5 C 182.5,170.833 182.5,178.167 182.5,185.5C 178.167,185.5 173.833,185.5 169.5,185.5C 169.5,178.167 169.5,170.833 169.5,163.5C 173.833,163.5 178.167,163.5 182.5,163.5 Z"/></g>
<g><path style="opacity:1" fill="#bad7da" d="M 46.5,162.5 C 46.5,170.5 46.5,178.5 46.5,186.5C 51.5,186.5 56.5,186.5 61.5,186.5C 56.6946,187.487 51.6946,187.821 46.5,187.5C 45.8333,187.5 45.5,187.167 45.5,186.5C 45.1743,178.316 45.5076,170.316 46.5,162.5 Z"/></g>
<g><path style="opacity:1" fill="#82b6bc" d="M 62.5,162.5 C 62.8333,162.5 63.1667,162.5 63.5,162.5C 63.5,170.5 63.5,178.5 63.5,186.5C 63.3893,187.117 63.056,187.617 62.5,188C 57.1771,188.499 51.8437,188.666 46.5,188.5C 46.5,188.167 46.5,187.833 46.5,187.5C 51.6946,187.821 56.6946,187.487 61.5,186.5C 62.4924,178.684 62.8257,170.684 62.5,162.5 Z"/></g>
<g><path style="opacity:1" fill="#308691" d="M 46.5,189.5 C 51.544,189.173 56.544,189.506 61.5,190.5C 56.1977,191.663 50.8643,191.829 45.5,191C 46.056,190.617 46.3893,190.117 46.5,189.5 Z"/></g>
<g><path style="opacity:1" fill="#378a94" d="M 166.5,189.5 C 194.235,190.033 194.235,191.367 166.5,193.5C 166.5,192.167 166.5,190.833 166.5,189.5 Z"/></g>
<g><path style="opacity:1" fill="#308591" d="M 193.5,199.5 C 180.5,199.5 167.5,199.5 154.5,199.5C 160.631,198.17 167.131,197.503 174,197.5C 180.869,197.503 187.369,198.17 193.5,199.5 Z"/></g>
<g><path style="opacity:0.623" fill="#94c0c7" d="M 153.5,200.5 C 167.5,200.5 181.5,200.5 195.5,200.5C 195.833,200.5 196.167,200.5 196.5,200.5C 196.5,201.167 196.5,201.833 196.5,202.5C 195.833,202.5 195.167,202.5 194.5,202.5C 180.833,201.833 167.167,201.167 153.5,200.5 Z"/></g>
<g><path style="opacity:0.475" fill="#a2c8ce" d="M 80.5,161.5 C 80.1858,174.913 80.5192,188.246 81.5,201.5C 73.0066,202.166 64.3399,202.5 55.5,202.5C 46.4733,202.498 37.8066,201.831 29.5,200.5C 45.8333,200.5 62.1667,200.5 78.5,200.5C 79.1667,187.5 79.8333,174.5 80.5,161.5 Z"/></g>
</svg>
