<?xml version="1.0" standalone="no"?>
<!DOCTYPE svg PUBLIC "-//W3C//DTD SVG 1.1//EN" "http://www.w3.org/Graphics/SVG/1.1/DTD/svg11.dtd" >
<svg xmlns="http://www.w3.org/2000/svg" xmlns:xlink="http://www.w3.org/1999/xlink" version="1.1" viewBox="-10 0 522 512">
   <path fill="#ffffff"
d="M384 32c34 0 62 28 62 63v322c0 34 -28 63 -62 63h-255c-35 0 -63 -29 -63 -63v-322c0 -35 28 -63 63 -63h255zM185 415v-16c0 -8 -7 -15 -16 -15h-44c-9 0 -16 7 -16 15v16c0 8 7 15 16 15h44c9 0 16 -7 16 -15zM185 333v-15c0 -9 -7 -16 -16 -16h-44c-9 0 -16 7 -16 16
v15c0 9 7 16 16 16h44c9 0 16 -7 16 -16zM185 252v-16c0 -8 -7 -15 -16 -15h-44c-9 0 -16 7 -16 15v16c0 8 7 15 16 15h44c9 0 16 -7 16 -15zM293 415v-16c0 -8 -7 -15 -16 -15h-44c-9 0 -16 7 -16 15v16c0 8 7 15 16 15h44c9 0 16 -7 16 -15zM293 333v-15
c0 -9 -7 -16 -16 -16h-44c-9 0 -16 7 -16 16v15c0 9 7 16 16 16h44c9 0 16 -7 16 -16zM293 252v-16c0 -8 -7 -15 -16 -15h-44c-9 0 -16 7 -16 15v16c0 8 7 15 16 15h44c9 0 16 -7 16 -15zM401 415v-16c0 -8 -7 -15 -16 -15h-44c-9 0 -16 7 -16 15v16c0 8 7 15 16 15h44
c9 0 16 -7 16 -15zM401 333v-15c0 -9 -7 -16 -16 -16h-44c-9 0 -16 7 -16 16v15c0 9 7 16 16 16h44c9 0 16 -7 16 -16zM401 252v-16c0 -8 -7 -15 -16 -15h-44c-9 0 -16 7 -16 15v16c0 8 7 15 16 15h44c9 0 16 -7 16 -15zM401 167v-68c0 -9 -7 -16 -15 -16h-261
c-9 0 -16 7 -16 16v68c0 9 7 16 16 16h261c8 0 15 -7 15 -16z" />
</svg>
