<?xml version="1.0" standalone="no"?>
<!DOCTYPE svg PUBLIC "-//W3C//DTD SVG 1.1//EN" "http://www.w3.org/Graphics/SVG/1.1/DTD/svg11.dtd" >
<svg xmlns="http://www.w3.org/2000/svg" xmlns:xlink="http://www.w3.org/1999/xlink" version="1.1" viewBox="35 0 460 460">
   <path fill="#4A555F"
d="M414 147c0 -5 2 -9 3 -13v0l-13 -10l-41 29v-23h-21v38l-34 24l7 10l89 -63zM445 244c8 0 21 -4 29 -9v59h-140v-89l70 -50l6 5c-8 15 -18 35 -9 57c1 0 1 1 1 1h-24v41h51v-18c6 2 9 3 16 3zM480 175c19 32 -2 52 -27 57c2 -2 4 -5 4 -8c0 -4 -3 -8 -4 -10
c0 2 -1 4 -2 5c0 0 -1 1 -2 1c-2 0 -3 -1 -3 -2c-1 0 -2 -2 -1 -3c0 -2 1 -4 2 -5c4 -5 4 -9 0 -14c-1 5 -8 10 -12 18c-6 10 0 16 4 18c-8 -1 -21 -6 -27 -20c-7 -18 2 -34 10 -50c-5 17 2 28 6 32c-1 -8 3 -14 4 -22c1 -7 0 -13 -3 -19c-4 -6 -4 -10 -3 -16v5
c1 7 9 10 13 14c7 6 8 11 7 18c6 -12 5 -23 -4 -35c-8 -11 -17 -26 -8 -40c0 14 9 22 17 31c10 11 17 18 20 32c5 15 3 26 -7 38c7 -3 20 -12 16 -25zM242 257c0 0 3 13 3 14c0 6 -21 12 -55 12l-6 -31c-1 -9 -9 -19 -16 -22c-6 -2 -11 -4 -16 -6c-8 -6 -10 -13 -10 -13
s18 -2 14 -30v-6c-1 -14 12 -28 33 -28s34 14 33 28v6c-5 28 13 30 13 30s-9 16 -30 22v0s23 11 26 12c4 2 10 7 11 12zM176 253l5 28v1c0 8 -29 15 -74 15s-74 -7 -74 -15l4 -29c1 -6 7 -13 12 -15c4 -3 33 -12 36 -18c2 -6 0 -13 0 -13c-3 -4 -5 -10 -7 -15h-1
c-4 0 -8 -6 -9 -11c-1 -6 -1 -11 4 -11h1c-3 -20 6 -45 34 -45c27 0 34 25 34 45h1c4 0 4 5 3 11c-1 5 -5 11 -9 11v0c-2 5 -5 11 -7 15c0 0 -3 7 -1 13c3 6 32 15 37 18c4 2 11 9 11 15zM278 187v72h12v-72h-12zM248 217v12h72v-12h-72z" />
</svg>
