<?xml version="1.0" encoding="UTF-8"?>
<!DOCTYPE svg PUBLIC "-//W3C//DTD SVG 1.1//EN" "http://www.w3.org/Graphics/SVG/1.1/DTD/svg11.dtd">
<svg xmlns="http://www.w3.org/2000/svg" version="1.1" width="230px" height="230px" style="shape-rendering:geometricPrecision; text-rendering:geometricPrecision; image-rendering:optimizeQuality; fill-rule:evenodd; clip-rule:evenodd" xmlns:xlink="http://www.w3.org/1999/xlink">
<g><path style="opacity:0.086" fill="#bed9dc" d="M 119.5,30.5 C 118.833,29.1667 118.167,27.8333 117.5,26.5C 117.5,25.8333 117.167,25.5 116.5,25.5C 114.5,24.1667 112.5,24.1667 110.5,25.5C 109.508,25.3284 108.842,25.6618 108.5,26.5C 107.833,26.5 107.167,26.5 106.5,26.5C 106.539,25.4168 106.873,24.4168 107.5,23.5C 111.122,22.3414 114.789,22.1747 118.5,23C 119.435,25.3806 119.768,27.8806 119.5,30.5 Z"/></g>
<g><path style="opacity:0.493" fill="#79afb7" d="M 110.5,25.5 C 110.5,25.8333 110.5,26.1667 110.5,26.5C 109.833,40.1667 109.167,53.8333 108.5,67.5C 108.5,53.8333 108.5,40.1667 108.5,26.5C 108.842,25.6618 109.508,25.3284 110.5,25.5 Z"/></g>
<g><path style="opacity:0.208" fill="#87b7bf" d="M 106.5,26.5 C 107.167,26.5 107.833,26.5 108.5,26.5C 108.5,40.1667 108.5,53.8333 108.5,67.5C 105.833,68.1667 103.167,68.8333 100.5,69.5C 98.1274,70.203 96.1274,71.5363 94.5,73.5C 95.0476,71.6064 96.0476,69.9397 97.5,68.5C 101.276,68.23 104.61,67.23 107.5,65.5C 106.537,52.5494 106.204,39.5494 106.5,26.5 Z"/></g>
<g><path style="opacity:0.759" fill="#5c9ea8" d="M 110.5,26.5 C 110.5,27.5 110.5,28.5 110.5,29.5C 110.667,42.5043 110.5,55.5043 110,68.5C 109.617,69.056 109.117,69.3893 108.5,69.5C 105.833,69.5 103.167,69.5 100.5,69.5C 103.167,68.8333 105.833,68.1667 108.5,67.5C 109.167,53.8333 109.833,40.1667 110.5,26.5 Z"/></g>
<g><path style="opacity:0.981" fill="#5b9ea7" d="M 116.5,25.5 C 116.5,39.1667 116.5,52.8333 116.5,66.5C 115.505,54.3446 115.171,42.0113 115.5,29.5C 115.5,28.5 115.5,27.5 115.5,26.5C 113.833,26.5 112.167,26.5 110.5,26.5C 110.5,26.1667 110.5,25.8333 110.5,25.5C 112.5,24.1667 114.5,24.1667 116.5,25.5 Z"/></g>
<g><path style="opacity:0.831" fill="#7bb0b8" d="M 116.5,25.5 C 117.167,25.5 117.5,25.8333 117.5,26.5C 117.185,40.2456 117.519,53.9123 118.5,67.5C 117.833,67.5 117.167,67.5 116.5,67.5C 116.5,67.1667 116.5,66.8333 116.5,66.5C 116.5,52.8333 116.5,39.1667 116.5,25.5 Z"/></g>
<g><path style="opacity:1" fill="#2f858f" d="M 110.5,26.5 C 112.167,26.5 113.833,26.5 115.5,26.5C 115.5,27.5 115.5,28.5 115.5,29.5C 114.505,41.989 114.171,54.6557 114.5,67.5C 113.5,67.5 112.5,67.5 111.5,67.5C 111.829,54.6557 111.495,41.989 110.5,29.5C 110.5,28.5 110.5,27.5 110.5,26.5 Z"/></g>
<g><path style="opacity:0.353" fill="#93bfc5" d="M 117.5,26.5 C 118.167,27.8333 118.833,29.1667 119.5,30.5C 119.172,42.3453 119.505,54.012 120.5,65.5C 122.508,67.0826 124.841,68.0826 127.5,68.5C 124.287,68.81 121.287,68.4767 118.5,67.5C 117.519,53.9123 117.185,40.2456 117.5,26.5 Z"/></g>
<g><path style="opacity:1" fill="#418f99" d="M 110.5,29.5 C 111.495,41.989 111.829,54.6557 111.5,67.5C 112.5,67.5 113.5,67.5 114.5,67.5C 114.171,54.6557 114.505,41.989 115.5,29.5C 115.171,42.0113 115.505,54.3446 116.5,66.5C 116.5,66.8333 116.5,67.1667 116.5,67.5C 116.611,68.1174 116.944,68.6174 117.5,69C 122.413,69.0289 127.08,69.8622 131.5,71.5C 132.783,73.6064 133.616,75.9398 134,78.5C 135.129,80.1412 136.629,81.1412 138.5,81.5C 140.215,83.8818 142.215,85.8818 144.5,87.5C 145.539,89.5311 147.205,90.8645 149.5,91.5C 150.693,94.9378 153.026,97.2712 156.5,98.5C 158.902,100.909 161.569,102.909 164.5,104.5C 165.585,106.587 167.251,107.92 169.5,108.5C 170.585,110.587 172.251,111.92 174.5,112.5C 174.833,113.5 175.5,114.167 176.5,114.5C 176.5,114.833 176.5,115.167 176.5,115.5C 176.973,116.906 177.973,117.573 179.5,117.5C 182.833,120.5 186.167,123.5 189.5,126.5C 189.973,127.906 190.973,128.573 192.5,128.5C 192.833,129.5 193.5,130.167 194.5,130.5C 196.299,133.505 196.966,136.838 196.5,140.5C 194.986,142.364 193.653,144.364 192.5,146.5C 192.785,144.712 192.452,143.045 191.5,141.5C 190.433,143.559 189.1,145.392 187.5,147C 176.485,147.168 165.485,147.668 154.5,148.5C 150.88,151.16 147.214,152.827 143.5,153.5C 143.5,152.167 143.5,150.833 143.5,149.5C 123.853,150.271 104.186,150.771 84.5,151C 83.2264,151.977 83.2264,152.811 84.5,153.5C 84.5,154.167 84.5,154.833 84.5,155.5C 81.7073,154.938 79.374,153.605 77.5,151.5C 76.7025,151.957 76.3691,152.624 76.5,153.5C 75.7109,153.217 75.0442,152.717 74.5,152C 62.6595,151.831 50.9928,151.331 39.5,150.5C 50.4916,149.925 61.4916,149.259 72.5,148.5C 60.4902,147.75 48.4902,147.083 36.5,146.5C 36.3347,142.818 36.5014,139.152 37,135.5C 51.5514,122.66 65.7181,109.493 79.5,96C 82.6045,95.947 84.7712,94.1137 86,90.5C 90.6748,86.9911 94.8415,82.9911 98.5,78.5C 99.3482,76.5914 99.6816,74.5914 99.5,72.5C 102.5,72.5 105.5,72.5 108.5,72.5C 108.5,71.5 108.5,70.5 108.5,69.5C 109.117,69.3893 109.617,69.056 110,68.5C 110.5,55.5043 110.667,42.5043 110.5,29.5 Z"/></g>
<g><path style="opacity:0.818" fill="#63a3ab" d="M 116.5,67.5 C 117.167,67.5 117.833,67.5 118.5,67.5C 121.287,68.4767 124.287,68.81 127.5,68.5C 129.404,68.7376 130.738,69.7376 131.5,71.5C 127.08,69.8622 122.413,69.0289 117.5,69C 116.944,68.6174 116.611,68.1174 116.5,67.5 Z"/></g>
<g><path style="opacity:0.09" fill="#b6d4d8" d="M 120.5,65.5 C 129.628,64.7077 134.962,68.7077 136.5,77.5C 135.182,75.249 133.516,73.249 131.5,71.5C 130.738,69.7376 129.404,68.7376 127.5,68.5C 124.841,68.0826 122.508,67.0826 120.5,65.5 Z"/></g>
<g><path style="opacity:0.412" fill="#9dc5ca" d="M 94.5,73.5 C 94.5674,74.9587 94.2341,76.2921 93.5,77.5C 93.1667,77.5 92.8333,77.5 92.5,77.5C 92.2291,75.6203 92.8958,74.287 94.5,73.5 Z"/></g>
<g><path style="opacity:0.086" fill="#c0dadd" d="M 107.5,65.5 C 104.61,67.23 101.276,68.23 97.5,68.5C 96.0476,69.9397 95.0476,71.6064 94.5,73.5C 92.8958,74.287 92.2291,75.6203 92.5,77.5C 89.5,80.8333 86.5,84.1667 83.5,87.5C 82.5084,87.3284 81.8417,87.6618 81.5,88.5C 80.8333,88.5 80.1667,88.5 79.5,88.5C 82.7961,84.7024 86.2961,81.0357 90,77.5C 92.2911,68.4316 98.1244,64.4316 107.5,65.5 Z"/></g>
<g><path style="opacity:0.451" fill="#7eb3b9" d="M 131.5,71.5 C 133.516,73.249 135.182,75.249 136.5,77.5C 136.733,79.0618 137.4,80.3951 138.5,81.5C 136.629,81.1412 135.129,80.1412 134,78.5C 133.616,75.9398 132.783,73.6064 131.5,71.5 Z"/></g>
<g><path style="opacity:0.071" fill="#bad6da" d="M 136.5,77.5 C 139.78,79.1455 142.447,81.4788 144.5,84.5C 142.5,83.5 140.5,82.5 138.5,81.5C 137.4,80.3951 136.733,79.0618 136.5,77.5 Z"/></g>
<g><path style="opacity:0.761" fill="#72acb4" d="M 92.5,77.5 C 92.8333,77.5 93.1667,77.5 93.5,77.5C 91.1667,81.8333 87.8333,85.1667 83.5,87.5C 86.5,84.1667 89.5,80.8333 92.5,77.5 Z"/></g>
<g><path style="opacity:0.357" fill="#87b8be" d="M 138.5,81.5 C 140.5,82.5 142.5,83.5 144.5,84.5C 144.5,85.5 144.5,86.5 144.5,87.5C 142.215,85.8818 140.215,83.8818 138.5,81.5 Z"/></g>
<g><path style="opacity:0.267" fill="#adced3" d="M 144.5,84.5 C 149.019,87.9292 153.352,91.5959 157.5,95.5C 157.158,96.3382 156.492,96.6716 155.5,96.5C 153.817,94.4864 151.817,92.8198 149.5,91.5C 148.421,89.457 146.754,88.1237 144.5,87.5C 144.5,86.5 144.5,85.5 144.5,84.5 Z"/></g>
<g><path style="opacity:0.784" fill="#67a6ae" d="M 144.5,87.5 C 146.754,88.1237 148.421,89.457 149.5,91.5C 147.205,90.8645 145.539,89.5311 144.5,87.5 Z"/></g>
<g><path style="opacity:0.655" fill="#6da9b1" d="M 83.5,87.5 C 80.2209,91.4458 76.5542,95.1125 72.5,98.5C 74.7946,94.5384 77.7946,91.2051 81.5,88.5C 81.8417,87.6618 82.5084,87.3284 83.5,87.5 Z"/></g>
<g><path style="opacity:0.839" fill="#589ca5" d="M 149.5,91.5 C 151.817,92.8198 153.817,94.4864 155.5,96.5C 155.833,97.1667 156.167,97.8333 156.5,98.5C 153.026,97.2712 150.693,94.9378 149.5,91.5 Z"/></g>
<g><path style="opacity:0.416" fill="#86b8be" d="M 157.5,95.5 C 158.5,95.8333 159.167,96.5 159.5,97.5C 160.754,100.093 162.42,102.427 164.5,104.5C 161.569,102.909 158.902,100.909 156.5,98.5C 156.167,97.8333 155.833,97.1667 155.5,96.5C 156.492,96.6716 157.158,96.3382 157.5,95.5 Z"/></g>
<g><path style="opacity:0.667" fill="#7fb4ba" d="M 70.5,99.5 C 69.8333,100.833 68.8333,101.833 67.5,102.5C 67.5,100.5 68.5,99.5 70.5,99.5 Z"/></g>
<g><path style="opacity:0.38" fill="#81b4bb" d="M 164.5,104.5 C 166.749,105.08 168.415,106.413 169.5,108.5C 167.251,107.92 165.585,106.587 164.5,104.5 Z"/></g>
<g><path style="opacity:0.122" fill="#b5d3d7" d="M 79.5,88.5 C 80.1667,88.5 80.8333,88.5 81.5,88.5C 77.7946,91.2051 74.7946,94.5384 72.5,98.5C 71.5084,98.3284 70.8417,98.6618 70.5,99.5C 68.5,99.5 67.5,100.5 67.5,102.5C 66.5,102.833 65.8333,103.5 65.5,104.5C 59.7108,108.715 54.3775,113.382 49.5,118.5C 47.7024,120.112 45.7024,121.612 43.5,123C 42.7476,123.671 42.4142,124.504 42.5,125.5C 40.4048,126.412 38.4048,127.579 36.5,129C 35.1772,129.816 34.5106,130.983 34.5,132.5C 33.1667,133.167 32.1667,134.167 31.5,135.5C 29.5185,138.373 29.1851,141.373 30.5,144.5C 31.1667,145.167 31.8333,145.833 32.5,146.5C 32.2852,148.179 32.9519,149.179 34.5,149.5C 35.1667,150.833 36.1667,151.833 37.5,152.5C 39.0764,153.143 40.4097,154.143 41.5,155.5C 36.5308,154.599 32.3642,152.265 29,148.5C 28.3333,143.833 28.3333,139.167 29,134.5C 45.6225,118.8 62.4559,103.466 79.5,88.5 Z"/></g>
<g><path style="opacity:0.322" fill="#90bec3" d="M 169.5,108.5 C 171.749,109.08 173.415,110.413 174.5,112.5C 172.251,111.92 170.585,110.587 169.5,108.5 Z"/></g>
<g><path style="opacity:0.122" fill="#b2d2d6" d="M 159.5,97.5 C 166.753,102.083 173.086,107.75 178.5,114.5C 177.833,114.5 177.167,114.5 176.5,114.5C 175.5,114.167 174.833,113.5 174.5,112.5C 173.415,110.413 171.749,109.08 169.5,108.5C 168.415,106.413 166.749,105.08 164.5,104.5C 162.42,102.427 160.754,100.093 159.5,97.5 Z"/></g>
<g><path style="opacity:0.816" fill="#70abb2" d="M 65.5,104.5 C 60.9564,110.1 55.623,114.766 49.5,118.5C 54.3775,113.382 59.7108,108.715 65.5,104.5 Z"/></g>
<g><path style="opacity:0.467" fill="#74adb4" d="M 176.5,115.5 C 178.027,115.427 179.027,116.094 179.5,117.5C 177.973,117.573 176.973,116.906 176.5,115.5 Z"/></g>
<g><path style="opacity:1" fill="#3b8c96" d="M 100.5,69.5 C 103.167,69.5 105.833,69.5 108.5,69.5C 108.5,70.5 108.5,71.5 108.5,72.5C 105.5,72.5 102.5,72.5 99.5,72.5C 99.6816,74.5914 99.3482,76.5914 98.5,78.5C 94.8415,82.9911 90.6748,86.9911 86,90.5C 84.7712,94.1137 82.6045,95.947 79.5,96C 65.7181,109.493 51.5514,122.66 37,135.5C 36.5014,139.152 36.3347,142.818 36.5,146.5C 48.4902,147.083 60.4902,147.75 72.5,148.5C 61.4916,149.259 50.4916,149.925 39.5,150.5C 37.7839,150.371 36.1172,150.038 34.5,149.5C 32.9519,149.179 32.2852,148.179 32.5,146.5C 32.3347,142.818 32.5014,139.152 33,135.5C 34.045,134.627 34.8783,133.627 35.5,132.5C 38.027,130.395 40.3603,128.061 42.5,125.5C 45.8333,124.167 48.1667,121.833 49.5,118.5C 55.623,114.766 60.9564,110.1 65.5,104.5C 65.8333,103.5 66.5,102.833 67.5,102.5C 68.8333,101.833 69.8333,100.833 70.5,99.5C 70.8417,98.6618 71.5084,98.3284 72.5,98.5C 76.5542,95.1125 80.2209,91.4458 83.5,87.5C 87.8333,85.1667 91.1667,81.8333 93.5,77.5C 94.2341,76.2921 94.5674,74.9587 94.5,73.5C 96.1274,71.5363 98.1274,70.203 100.5,69.5 Z"/></g>
<g><path style="opacity:0.146" fill="#a7cbd0" d="M 176.5,115.5 C 176.5,115.167 176.5,114.833 176.5,114.5C 177.167,114.5 177.833,114.5 178.5,114.5C 184.869,119.023 190.869,124.023 196.5,129.5C 196.5,129.833 196.5,130.167 196.5,130.5C 195.833,130.5 195.167,130.5 194.5,130.5C 193.5,130.167 192.833,129.5 192.5,128.5C 192.027,127.094 191.027,126.427 189.5,126.5C 186.167,123.5 182.833,120.5 179.5,117.5C 179.027,116.094 178.027,115.427 176.5,115.5 Z"/></g>
<g><path style="opacity:0.863" fill="#69a7af" d="M 49.5,118.5 C 48.1667,121.833 45.8333,124.167 42.5,125.5C 42.4142,124.504 42.7476,123.671 43.5,123C 45.7024,121.612 47.7024,120.112 49.5,118.5 Z"/></g>
<g><path style="opacity:0.38" fill="#80b5bb" d="M 189.5,126.5 C 191.027,126.427 192.027,127.094 192.5,128.5C 190.973,128.573 189.973,127.906 189.5,126.5 Z"/></g>
<g><path style="opacity:0.494" fill="#7bb1b8" d="M 42.5,125.5 C 40.3603,128.061 38.027,130.395 35.5,132.5C 35.1667,132.5 34.8333,132.5 34.5,132.5C 34.5106,130.983 35.1772,129.816 36.5,129C 38.4048,127.579 40.4048,126.412 42.5,125.5 Z"/></g>
<g><path style="opacity:0.737" fill="#85b7be" d="M 194.5,130.5 C 195.167,130.5 195.833,130.5 196.5,130.5C 197.782,133.936 197.782,137.269 196.5,140.5C 196.966,136.838 196.299,133.505 194.5,130.5 Z"/></g>
<g><path style="opacity:0.631" fill="#8fbdc3" d="M 31.5,135.5 C 31.0371,138.482 30.7038,141.482 30.5,144.5C 29.1851,141.373 29.5185,138.373 31.5,135.5 Z"/></g>
<g><path style="opacity:1" fill="#5c9fa8" d="M 34.5,132.5 C 34.8333,132.5 35.1667,132.5 35.5,132.5C 34.8783,133.627 34.045,134.627 33,135.5C 32.5014,139.152 32.3347,142.818 32.5,146.5C 31.8333,145.833 31.1667,145.167 30.5,144.5C 30.7038,141.482 31.0371,138.482 31.5,135.5C 32.1667,134.167 33.1667,133.167 34.5,132.5 Z"/></g>
<g><path style="opacity:0.761" fill="#78afb6" d="M 196.5,140.5 C 195.885,144.396 194.219,147.73 191.5,150.5C 191.167,150.5 190.833,150.5 190.5,150.5C 190.733,148.938 191.4,147.605 192.5,146.5C 193.653,144.364 194.986,142.364 196.5,140.5 Z"/></g>
<g><path style="opacity:0.108" fill="#bbd7db" d="M 196.5,129.5 C 197.708,130.234 199.041,130.567 200.5,130.5C 200.5,134.5 200.5,138.5 200.5,142.5C 199.5,142.5 198.5,142.5 197.5,142.5C 196.817,147.217 194.483,150.884 190.5,153.5C 190.557,152.391 190.89,151.391 191.5,150.5C 194.219,147.73 195.885,144.396 196.5,140.5C 197.782,137.269 197.782,133.936 196.5,130.5C 196.5,130.167 196.5,129.833 196.5,129.5 Z"/></g>
<g><path style="opacity:1" fill="#49949e" d="M 143.5,153.5 C 143.158,154.338 142.492,154.672 141.5,154.5C 141.5,153.5 141.5,152.5 141.5,151.5C 122.83,151.333 104.164,151.5 85.5,152C 84.944,152.383 84.6107,152.883 84.5,153.5C 83.2264,152.811 83.2264,151.977 84.5,151C 104.186,150.771 123.853,150.271 143.5,149.5C 143.5,150.833 143.5,152.167 143.5,153.5 Z"/></g>
<g><path style="opacity:0.973" fill="#68a7ae" d="M 34.5,149.5 C 36.1172,150.038 37.7839,150.371 39.5,150.5C 50.9928,151.331 62.6595,151.831 74.5,152C 75.0442,152.717 75.7109,153.217 76.5,153.5C 77.1098,154.391 77.4431,155.391 77.5,156.5C 77.1667,156.5 76.8333,156.5 76.5,156.5C 75.7101,155.206 74.7101,154.039 73.5,153C 61.5046,152.5 49.5046,152.333 37.5,152.5C 36.1667,151.833 35.1667,150.833 34.5,149.5 Z"/></g>
<g><path style="opacity:0.971" fill="#67a6ae" d="M 187.5,151.5 C 187.5,151.833 187.5,152.167 187.5,152.5C 176.162,152.333 164.828,152.5 153.5,153C 152.922,154.417 151.922,155.25 150.5,155.5C 151.028,154.279 151.695,153.113 152.5,152C 164.162,151.5 175.829,151.333 187.5,151.5 Z"/></g>
<g><path style="opacity:0.122" fill="#a1c8cc" d="M 190.5,150.5 C 190.833,150.5 191.167,150.5 191.5,150.5C 190.89,151.391 190.557,152.391 190.5,153.5C 189.609,152.89 188.609,152.557 187.5,152.5C 187.5,152.167 187.5,151.833 187.5,151.5C 188.609,151.443 189.609,151.11 190.5,150.5 Z"/></g>
<g><path style="opacity:0.106" fill="#c0dade" d="M 187.5,152.5 C 188.609,152.557 189.609,152.89 190.5,153.5C 189.329,154.345 187.995,155.011 186.5,155.5C 186.557,154.391 186.89,153.391 187.5,152.5 Z"/></g>
<g><path style="opacity:0.214" fill="#9ec6ca" d="M 37.5,152.5 C 49.5046,152.333 61.5046,152.5 73.5,153C 74.7101,154.039 75.7101,155.206 76.5,156.5C 75.8333,156.5 75.1667,156.5 74.5,156.5C 63.5011,156.765 52.5011,156.432 41.5,155.5C 40.4097,154.143 39.0764,153.143 37.5,152.5 Z"/></g>
<g><path style="opacity:0.212" fill="#9ec6ca" d="M 187.5,152.5 C 186.89,153.391 186.557,154.391 186.5,155.5C 175.863,156.831 165.196,156.831 154.5,155.5C 153.478,155.855 152.811,156.522 152.5,157.5C 151.833,157.5 151.167,157.5 150.5,157.5C 150.5,156.833 150.5,156.167 150.5,155.5C 151.922,155.25 152.922,154.417 153.5,153C 164.828,152.5 176.162,152.333 187.5,152.5 Z"/></g>
<g><path style="opacity:0.184" fill="#b8d5d9" d="M 150.5,157.5 C 151.167,157.5 151.833,157.5 152.5,157.5C 149.784,162.216 146.118,165.882 141.5,168.5C 144.129,164.537 147.129,160.871 150.5,157.5 Z"/></g>
<g><path style="opacity:0.514" fill="#83b6bc" d="M 150.5,155.5 C 150.5,156.167 150.5,156.833 150.5,157.5C 147.129,160.871 144.129,164.537 141.5,168.5C 137.729,170.458 133.729,172.125 129.5,173.5C 128.702,173.957 128.369,174.624 128.5,175.5C 126.5,175.5 124.5,175.5 122.5,175.5C 121.5,175.5 120.5,175.5 119.5,175.5C 122.02,174.082 124.687,173.082 127.5,172.5C 129.951,171.106 132.618,170.272 135.5,170C 141.03,165.636 146.03,160.802 150.5,155.5 Z"/></g>
<g><path style="opacity:0.749" fill="#60a0a9" d="M 80.5,160.5 C 82.5,161.167 83.8333,162.5 84.5,164.5C 84.1667,164.5 83.8333,164.5 83.5,164.5C 81.7376,163.738 80.7376,162.404 80.5,160.5 Z"/></g>
<g><path style="opacity:0.69" fill="#82b6bc" d="M 83.5,164.5 C 83.8333,164.5 84.1667,164.5 84.5,164.5C 85.8333,165.167 86.8333,166.167 87.5,167.5C 85.5956,167.262 84.2623,166.262 83.5,164.5 Z"/></g>
<g><path style="opacity:0.196" fill="#b6d4d8" d="M 74.5,156.5 C 75.1667,156.5 75.8333,156.5 76.5,156.5C 76.8333,156.5 77.1667,156.5 77.5,156.5C 77.7376,158.404 78.7376,159.738 80.5,160.5C 80.7376,162.404 81.7376,163.738 83.5,164.5C 84.2623,166.262 85.5956,167.262 87.5,167.5C 87.8212,169.048 88.8212,169.715 90.5,169.5C 91.6354,171.213 93.302,171.88 95.5,171.5C 96.925,172.922 97.925,174.589 98.5,176.5C 92.1278,174.198 86.4612,170.698 81.5,166C 78.5377,163.219 76.2044,160.052 74.5,156.5 Z"/></g>
<g><path style="opacity:0.404" fill="#7bb2b8" d="M 87.5,167.5 C 89.0269,167.427 90.0269,168.094 90.5,169.5C 88.8212,169.715 87.8212,169.048 87.5,167.5 Z"/></g>
<g><path style="opacity:1" fill="#3b8c96" d="M 192.5,146.5 C 191.4,147.605 190.733,148.938 190.5,150.5C 189.609,151.11 188.609,151.443 187.5,151.5C 175.829,151.333 164.162,151.5 152.5,152C 151.695,153.113 151.028,154.279 150.5,155.5C 146.03,160.802 141.03,165.636 135.5,170C 132.618,170.272 129.951,171.106 127.5,172.5C 120.872,173.489 114.205,174.156 107.5,174.5C 103.27,174.134 99.2699,173.134 95.5,171.5C 94.0697,170.463 92.403,169.796 90.5,169.5C 90.0269,168.094 89.0269,167.427 87.5,167.5C 86.8333,166.167 85.8333,165.167 84.5,164.5C 83.8333,162.5 82.5,161.167 80.5,160.5C 78.7376,159.738 77.7376,158.404 77.5,156.5C 77.4431,155.391 77.1098,154.391 76.5,153.5C 76.3691,152.624 76.7025,151.957 77.5,151.5C 79.374,153.605 81.7073,154.938 84.5,155.5C 85.1667,155.833 85.8333,156.167 86.5,156.5C 86.8333,156.5 87.1667,156.5 87.5,156.5C 88.5846,158.587 90.2512,159.92 92.5,160.5C 92.5394,161.583 92.8728,162.583 93.5,163.5C 95.7582,164.799 98.0916,165.799 100.5,166.5C 101.791,166.263 102.791,166.596 103.5,167.5C 103.611,168.117 103.944,168.617 104.5,169C 110.5,169.667 116.5,169.667 122.5,169C 124.066,168.392 125.4,167.558 126.5,166.5C 129.117,165.214 131.45,163.547 133.5,161.5C 133.5,160.833 133.833,160.5 134.5,160.5C 136.404,160.262 137.738,159.262 138.5,157.5C 140.5,157.5 141.5,156.5 141.5,154.5C 142.492,154.672 143.158,154.338 143.5,153.5C 147.214,152.827 150.88,151.16 154.5,148.5C 165.485,147.668 176.485,147.168 187.5,147C 189.1,145.392 190.433,143.559 191.5,141.5C 192.452,143.045 192.785,144.712 192.5,146.5 Z M 116.5,165.5 C 114.5,165.5 112.5,165.5 110.5,165.5C 103.963,163.649 97.9629,160.649 92.5,156.5C 92.8333,156.167 93.1667,155.833 93.5,155.5C 107.496,156.612 121.496,156.779 135.5,156C 129.728,160.416 123.395,163.582 116.5,165.5 Z"/></g>
<g><path style="opacity:1" fill="#599da6" d="M 122.5,166.5 C 122.833,166.5 123.167,166.5 123.5,166.5C 124.5,166.5 125.5,166.5 126.5,166.5C 125.4,167.558 124.066,168.392 122.5,169C 116.5,169.667 110.5,169.667 104.5,169C 103.944,168.617 103.611,168.117 103.5,167.5C 109.115,168.573 114.782,168.74 120.5,168C 121.416,167.722 122.082,167.222 122.5,166.5 Z"/></g>
<g><path style="opacity:0.484" fill="#b2d2d6" d="M 110.5,165.5 C 112.5,165.5 114.5,165.5 116.5,165.5C 117.209,166.404 118.209,166.737 119.5,166.5C 115.5,167.833 111.5,167.833 107.5,166.5C 108.791,166.737 109.791,166.404 110.5,165.5 Z"/></g>
<g><path style="opacity:1" fill="#61a2aa" d="M 133.5,161.5 C 131.45,163.547 129.117,165.214 126.5,166.5C 126.833,165.833 127.167,165.167 127.5,164.5C 129.216,162.975 131.216,161.975 133.5,161.5 Z"/></g>
<g><path style="opacity:0.878" fill="#87b8bf" d="M 127.5,164.5 C 127.167,165.167 126.833,165.833 126.5,166.5C 125.5,166.5 124.5,166.5 123.5,166.5C 124.287,164.896 125.62,164.229 127.5,164.5 Z"/></g>
<g><path style="opacity:0.643" fill="#92bfc5" d="M 98.5,164.5 C 101.574,164.873 104.574,165.539 107.5,166.5C 111.5,167.833 115.5,167.833 119.5,166.5C 120.5,166.5 121.5,166.5 122.5,166.5C 122.082,167.222 121.416,167.722 120.5,168C 114.782,168.74 109.115,168.573 103.5,167.5C 102.791,166.596 101.791,166.263 100.5,166.5C 99.8333,165.833 99.1667,165.167 98.5,164.5 Z"/></g>
<g><path style="opacity:1" fill="#599da6" d="M 92.5,160.5 C 94.5368,161.846 96.5368,163.18 98.5,164.5C 99.1667,165.167 99.8333,165.833 100.5,166.5C 98.0916,165.799 95.7582,164.799 93.5,163.5C 92.8728,162.583 92.5394,161.583 92.5,160.5 Z"/></g>
<g><path style="opacity:0.878" fill="#82b6bc" d="M 87.5,156.5 C 89.7488,157.08 91.4154,158.413 92.5,160.5C 90.2512,159.92 88.5846,158.587 87.5,156.5 Z"/></g>
<g><path style="opacity:0.91" fill="#75aeb5" d="M 138.5,157.5 C 137.738,159.262 136.404,160.262 134.5,160.5C 135.262,158.738 136.596,157.738 138.5,157.5 Z"/></g>
<g><path style="opacity:0.224" fill="#bbd7da" d="M 139.5,153.5 C 139.567,154.959 139.234,156.292 138.5,157.5C 136.596,157.738 135.262,158.738 134.5,160.5C 133.833,160.5 133.5,160.833 133.5,161.5C 131.216,161.975 129.216,162.975 127.5,164.5C 125.62,164.229 124.287,164.896 123.5,166.5C 123.167,166.5 122.833,166.5 122.5,166.5C 121.5,166.5 120.5,166.5 119.5,166.5C 118.209,166.737 117.209,166.404 116.5,165.5C 123.395,163.582 129.728,160.416 135.5,156C 121.496,156.779 107.496,156.612 93.5,155.5C 93.1667,155.833 92.8333,156.167 92.5,156.5C 97.9629,160.649 103.963,163.649 110.5,165.5C 109.791,166.404 108.791,166.737 107.5,166.5C 104.574,165.539 101.574,164.873 98.5,164.5C 96.5368,163.18 94.5368,161.846 92.5,160.5C 91.4154,158.413 89.7488,157.08 87.5,156.5C 87.5,155.5 87.5,154.5 87.5,153.5C 104.833,153.5 122.167,153.5 139.5,153.5 Z M 116.5,165.5 C 114.5,165.5 112.5,165.5 110.5,165.5C 103.963,163.649 97.9629,160.649 92.5,156.5C 92.8333,156.167 93.1667,155.833 93.5,155.5C 107.496,156.612 121.496,156.779 135.5,156C 129.728,160.416 123.395,163.582 116.5,165.5 Z"/></g>
<g><path style="opacity:0.984" fill="#69a7af" d="M 141.5,154.5 C 141.5,156.5 140.5,157.5 138.5,157.5C 139.234,156.292 139.567,154.959 139.5,153.5C 122.008,152.503 104.341,152.17 86.5,152.5C 86.5,153.833 86.5,155.167 86.5,156.5C 85.8333,156.167 85.1667,155.833 84.5,155.5C 84.5,154.833 84.5,154.167 84.5,153.5C 84.6107,152.883 84.944,152.383 85.5,152C 104.164,151.5 122.83,151.333 141.5,151.5C 141.5,152.5 141.5,153.5 141.5,154.5 Z"/></g>
<g><path style="opacity:0.843" fill="#94c0c5" d="M 139.5,153.5 C 122.167,153.5 104.833,153.5 87.5,153.5C 87.5,154.5 87.5,155.5 87.5,156.5C 87.1667,156.5 86.8333,156.5 86.5,156.5C 86.5,155.167 86.5,153.833 86.5,152.5C 104.341,152.17 122.008,152.503 139.5,153.5 Z"/></g>
<g><path style="opacity:0.506" fill="#7cb2b9" d="M 90.5,169.5 C 92.403,169.796 94.0697,170.463 95.5,171.5C 93.302,171.88 91.6354,171.213 90.5,169.5 Z"/></g>
<g><path style="opacity:0.016" fill="#b8d6d9" d="M 141.5,168.5 C 139.681,170.088 137.847,171.754 136,173.5C 135.667,173.167 135.333,172.833 135,172.5C 133.13,174.219 130.963,175.219 128.5,175.5C 128.369,174.624 128.702,173.957 129.5,173.5C 133.729,172.125 137.729,170.458 141.5,168.5 Z"/></g>
<g><path style="opacity:0.941" fill="#589da5" d="M 127.5,172.5 C 124.687,173.082 122.02,174.082 119.5,175.5C 116.998,175.749 114.498,176.083 112,176.5C 109.992,176.693 108.492,176.026 107.5,174.5C 114.205,174.156 120.872,173.489 127.5,172.5 Z"/></g>
<g><path style="opacity:0.82" fill="#71abb3" d="M 160.5,179.5 C 156.39,175.017 155.056,175.684 156.5,181.5C 155.5,181.167 154.833,180.5 154.5,179.5C 154.5,178.167 154.5,176.833 154.5,175.5C 157.878,174.891 159.878,176.224 160.5,179.5 Z"/></g>
<g><path style="opacity:0.239" fill="#86b7be" d="M 95.5,171.5 C 99.2699,173.134 103.27,174.134 107.5,174.5C 108.492,176.026 109.992,176.693 112,176.5C 114.498,176.083 116.998,175.749 119.5,175.5C 118.833,176.167 118.167,176.833 117.5,177.5C 116.833,177.5 116.5,177.833 116.5,178.5C 114.883,179.038 113.216,179.371 111.5,179.5C 109.695,177.803 107.361,176.97 104.5,177C 104.833,176.667 105.167,176.333 105.5,176C 103.613,175.22 101.946,175.387 100.5,176.5C 99.8333,176.5 99.1667,176.5 98.5,176.5C 97.925,174.589 96.925,172.922 95.5,171.5 Z"/></g>
<g><path style="opacity:0.18" fill="#9ec6cb" d="M 119.5,175.5 C 120.5,175.5 121.5,175.5 122.5,175.5C 121.448,177.256 119.781,177.923 117.5,177.5C 118.167,176.833 118.833,176.167 119.5,175.5 Z"/></g>
<g><path style="opacity:0.133" fill="#b3d2d6" d="M 122.5,175.5 C 124.5,175.5 126.5,175.5 128.5,175.5C 125.069,178.114 121.069,179.114 116.5,178.5C 116.5,177.833 116.833,177.5 117.5,177.5C 119.781,177.923 121.448,177.256 122.5,175.5 Z"/></g>
<g><path style="opacity:0.012" fill="#adced2" d="M 111.5,179.5 C 108.253,178.748 104.919,178.248 101.5,178C 100.944,177.617 100.611,177.117 100.5,176.5C 101.946,175.387 103.613,175.22 105.5,176C 105.167,176.333 104.833,176.667 104.5,177C 107.361,176.97 109.695,177.803 111.5,179.5 Z"/></g>
<g><path style="opacity:0.096" fill="#bdd8dc" d="M 154.5,173.5 C 153.258,175.611 153.258,177.611 154.5,179.5C 154.833,180.5 155.5,181.167 156.5,181.5C 157.08,183.749 158.413,185.415 160.5,186.5C 160.328,187.492 160.662,188.158 161.5,188.5C 162.946,189.613 164.613,189.78 166.5,189C 167.791,187.708 167.791,186.542 166.5,185.5C 166.5,185.167 166.5,184.833 166.5,184.5C 166.5,184.167 166.5,183.833 166.5,183.5C 167.693,183.97 168.36,184.97 168.5,186.5C 168.16,188.512 167.827,190.512 167.5,192.5C 164.951,192.613 162.618,191.946 160.5,190.5C 158.058,187.271 155.392,184.271 152.5,181.5C 151.353,179.235 151.186,176.902 152,174.5C 152.671,173.748 153.504,173.414 154.5,173.5 Z"/></g>
<g><path style="opacity:0.18" fill="#a2c8cd" d="M 154.5,173.5 C 159.938,174.925 163.938,178.258 166.5,183.5C 166.5,183.833 166.5,184.167 166.5,184.5C 165.833,184.167 165.167,183.833 164.5,183.5C 163.167,182.167 161.833,180.833 160.5,179.5C 159.878,176.224 157.878,174.891 154.5,175.5C 154.5,176.833 154.5,178.167 154.5,179.5C 153.258,177.611 153.258,175.611 154.5,173.5 Z"/></g>
<g><path style="opacity:0.549" fill="#77afb6" d="M 72.5,179.5 C 70.5419,182.792 68.2085,185.792 65.5,188.5C 64.1667,188.5 62.8333,188.5 61.5,188.5C 61.2627,187.209 61.596,186.209 62.5,185.5C 62.8425,187.225 63.8425,187.725 65.5,187C 67.3329,184.002 69.6662,181.502 72.5,179.5 Z"/></g>
<g><path style="opacity:0.486" fill="#79b0b7" d="M 156.5,181.5 C 158.587,182.585 159.92,184.251 160.5,186.5C 158.413,185.415 157.08,183.749 156.5,181.5 Z"/></g>
<g><path style="opacity:1" fill="#368893" d="M 160.5,179.5 C 161.833,180.833 163.167,182.167 164.5,183.5C 164.5,184.167 164.5,184.833 164.5,185.5C 163.789,187.842 162.456,188.175 160.5,186.5C 159.92,184.251 158.587,182.585 156.5,181.5C 155.056,175.684 156.39,175.017 160.5,179.5 Z"/></g>
<g><path style="opacity:0.451" fill="#8fbdc3" d="M 62.5,184.5 C 62.5,184.833 62.5,185.167 62.5,185.5C 61.596,186.209 61.2627,187.209 61.5,188.5C 62.8333,188.5 64.1667,188.5 65.5,188.5C 63.312,189.623 60.9787,189.623 58.5,188.5C 58.5,187.5 58.5,186.5 58.5,185.5C 59.1174,185.611 59.6174,185.944 60,186.5C 60.4169,185.244 61.2502,184.577 62.5,184.5 Z"/></g>
<g><path style="opacity:0.969" fill="#398a94" d="M 69.5,176.5 C 70.5,176.5 71.5,176.5 72.5,176.5C 72.5,177.5 72.5,178.5 72.5,179.5C 69.6662,181.502 67.3329,184.002 65.5,187C 63.8425,187.725 62.8425,187.225 62.5,185.5C 62.5,185.167 62.5,184.833 62.5,184.5C 63.9744,183.564 64.9744,182.23 65.5,180.5C 66.5,180.167 67.1667,179.5 67.5,178.5C 68.5,178.167 69.1667,177.5 69.5,176.5 Z"/></g>
<g><path style="opacity:0.557" fill="#7eb3b9" d="M 164.5,183.5 C 165.167,183.833 165.833,184.167 166.5,184.5C 166.5,184.833 166.5,185.167 166.5,185.5C 166.672,186.492 166.338,187.158 165.5,187.5C 165.672,186.508 165.338,185.842 164.5,185.5C 164.5,184.833 164.5,184.167 164.5,183.5 Z"/></g>
<g><path style="opacity:0.792" fill="#66a5ad" d="M 164.5,185.5 C 165.338,185.842 165.672,186.508 165.5,187.5C 164.432,188.434 163.099,188.768 161.5,188.5C 160.662,188.158 160.328,187.492 160.5,186.5C 162.456,188.175 163.789,187.842 164.5,185.5 Z"/></g>
<g><path style="opacity:0.353" fill="#9fc7cc" d="M 166.5,185.5 C 167.791,186.542 167.791,187.708 166.5,189C 164.613,189.78 162.946,189.613 161.5,188.5C 163.099,188.768 164.432,188.434 165.5,187.5C 166.338,187.158 166.672,186.492 166.5,185.5 Z"/></g>
<g><path style="opacity:0.071" fill="#bcd8db" d="M 58.5,188.5 C 60.9787,189.623 63.312,189.623 65.5,188.5C 68.2085,185.792 70.5419,182.792 72.5,179.5C 74.2252,179.157 74.7252,178.157 74,176.5C 72.3845,175.199 70.8845,175.199 69.5,176.5C 68.1667,176.5 67.5,177.167 67.5,178.5C 66.1667,178.5 65.5,179.167 65.5,180.5C 63.5544,181.035 62.5544,182.368 62.5,184.5C 61.2502,184.577 60.4169,185.244 60,186.5C 59.6174,185.944 59.1174,185.611 58.5,185.5C 61.2308,181.585 64.2308,177.752 67.5,174C 70.2241,173.73 72.8908,173.23 75.5,172.5C 75.8333,172.833 76.1667,173.167 76.5,173.5C 75.7868,175.776 75.2868,178.109 75,180.5C 71.8333,184.333 68.6667,188.167 65.5,192C 63.5292,192.014 61.5292,191.681 59.5,191C 58.7476,190.329 58.4142,189.496 58.5,188.5 Z"/></g>
<g><path style="opacity:0.69" fill="#7fb4ba" d="M 65.5,180.5 C 64.9744,182.23 63.9744,183.564 62.5,184.5C 62.5544,182.368 63.5544,181.035 65.5,180.5 Z"/></g>
<g><path style="opacity:0.616" fill="#81b5bc" d="M 67.5,178.5 C 67.1667,179.5 66.5,180.167 65.5,180.5C 65.5,179.167 66.1667,178.5 67.5,178.5 Z"/></g>
<g><path style="opacity:0.239" fill="#7fb4ba" d="M 69.5,176.5 C 70.8845,175.199 72.3845,175.199 74,176.5C 74.7252,178.157 74.2252,179.157 72.5,179.5C 72.5,178.5 72.5,177.5 72.5,176.5C 71.5,176.5 70.5,176.5 69.5,176.5 Z"/></g>
<g><path style="opacity:0.69" fill="#77afb6" d="M 69.5,176.5 C 69.1667,177.5 68.5,178.167 67.5,178.5C 67.5,177.167 68.1667,176.5 69.5,176.5 Z"/></g>
<g><path style="opacity:0.298" fill="#d3e5e7" d="M 109.5,188.5 C 109.666,192.514 109.499,196.514 109,200.5C 108.617,199.944 108.117,199.611 107.5,199.5C 105.907,195.387 106.574,191.72 109.5,188.5 Z"/></g>
<g><path style="opacity:0.608" fill="#bbd7db" d="M 107.5,199.5 C 108.117,199.611 108.617,199.944 109,200.5C 109.499,196.514 109.666,192.514 109.5,188.5C 109.67,187.178 109.337,186.011 108.5,185C 111.669,184.022 114.503,184.522 117,186.5C 118.83,193.119 118.996,199.785 117.5,206.5C 111.372,207.843 108.039,205.509 107.5,199.5 Z"/></g>
<g><path style="opacity:0.91" fill="#65a4ad" d="M 115.5,203.5 C 114.167,204.833 112.833,204.833 111.5,203.5C 111.5,198.5 111.5,193.5 111.5,188.5C 112.833,188.5 114.167,188.5 115.5,188.5C 115.5,193.5 115.5,198.5 115.5,203.5 Z"/></g>
<g><path style="opacity:0.625" fill="#91bec4" d="M 115.5,203.5 C 115.5,198.5 115.5,193.5 115.5,188.5C 114.167,188.5 112.833,188.5 111.5,188.5C 111.5,193.5 111.5,198.5 111.5,203.5C 110.185,198.32 110.185,192.986 111.5,187.5C 112.833,186.167 114.167,186.167 115.5,187.5C 116.815,192.986 116.815,198.32 115.5,203.5 Z"/></g>
<g><path style="opacity:1" fill="#43909a" d="M 112.5,189.5 C 113.805,191.397 114.471,193.731 114.5,196.5C 114.167,198.833 113.833,201.167 113.5,203.5C 112.507,198.88 112.173,194.214 112.5,189.5 Z"/></g>
</svg>
