<?xml version="1.0" standalone="no"?>
<!DOCTYPE svg PUBLIC "-//W3C//DTD SVG 1.1//EN" "http://www.w3.org/Graphics/SVG/1.1/DTD/svg11.dtd" >
<svg xmlns="http://www.w3.org/2000/svg" xmlns:xlink="http://www.w3.org/1999/xlink" version="1.1" viewBox="-10 0 522 512">
   <path fill="#16929c" d="M310 164l155 135v5c0 16 -11 46 -27 46h-83c-19 33 -57 59 -100 59s-80 -26 -99 -59h-83c-1 0 -3 -2 -4 -2c-12 -1 -22 -14 -22 -28c0 -10 4 -18 10 -22l147 -134c1 -16 9 -26 22 -26h17v-106h24v106h18c12 0 23 10 25 26zM255 387c30 0 56 -23 72 -37h-144
c17 14 43 37 72 37zM262 471v-31c0 -4 -2 -8 -6 -8h-1c-4 0 -7 4 -7 8v31c0 4 3 9 7 9h1c4 0 6 -5 6 -9zM387 429l-20 -24c-3 -3 -7 -3 -10 -1v0c-4 3 -4 8 -1 11l19 24c3 3 8 3 11 0v0c3 -2 3 -7 1 -10zM125 429l20 -24c3 -3 7 -3 11 -1v0c3 3 3 8 0 11l-19 24
c-3 3 -8 3 -11 0v0c-3 -2 -3 -7 -1 -10z" />
</svg>
