<?xml version="1.0" standalone="no"?>
<!DOCTYPE svg PUBLIC "-//W3C//DTD SVG 1.1//EN" "http://www.w3.org/Graphics/SVG/1.1/DTD/svg11.dtd" >
<svg xmlns="http://www.w3.org/2000/svg" xmlns:xlink="http://www.w3.org/1999/xlink" version="1.1" viewBox="-10 0 1300 1792">
   <path fill="#ffffff"
d="M1024 1184v64q0 14 -9 23t-23 9h-704q-14 0 -23 -9t-9 -23v-64q0 -14 9 -23t23 -9h704q14 0 23 9t9 23zM1024 928v64q0 14 -9 23t-23 9h-704q-14 0 -23 -9t-9 -23v-64q0 -14 9 -23t23 -9h704q14 0 23 9t9 23zM128 1536h1024v-768h-416q-40 0 -68 -28t-28 -68v-416h-512
v1280zM768 640h376q-10 -29 -22 -41l-313 -313q-12 -12 -41 -22v376zM1280 672v896q0 40 -28 68t-68 28h-1088q-40 0 -68 -28t-28 -68v-1344q0 -40 28 -68t68 -28h640q40 0 88 20t76 48l312 312q28 28 48 76t20 88z" />
</svg>
