<svg xmlns="http://www.w3.org/2000/svg" viewBox="0 0 24 24"><title>ts</title><path fill="white" d="M18.77,9V4.72H14.13L12,2.75l-2.13,2H5.23V9L2.88,11.17V21.25H21.12V11.17Zm1.65,2.38L18.77,12.9V9.85Zm-8.59,1.3-.13,0a1.88,1.88,0,0,1-.79-.2,1.83,1.83,0,0,1-.64-.5,2.45,2.45,0,0,1-.41-.77,3.28,3.28,0,0,1-.15-1,3,3,0,0,1,.16-1,2.46,2.46,0,0,1,.44-.74A2,2,0,0,1,10.92,8a2.36,2.36,0,0,1,.71-.23,2.4,2.4,0,0,1,.71,0,1.93,1.93,0,0,1,.56.2.55.55,0,0,1,.27.28h.05V7.82h1v3.33a.65.65,0,0,0,.13.43.43.43,0,0,0,.35.16.58.58,0,0,0,.45-.22,1.49,1.49,0,0,0,.25-.69,7.66,7.66,0,0,0,.08-1.19,3.31,3.31,0,0,0-.16-1.08,2.47,2.47,0,0,0-.45-.85,2.56,2.56,0,0,0-.69-.62,3.28,3.28,0,0,0-.9-.37,4,4,0,0,0-1.06-.13,4.15,4.15,0,0,0-1.51.26,3.1,3.1,0,0,0-1.09.74,3.22,3.22,0,0,0-.66,1.14,4.46,4.46,0,0,0-.22,1.45A4.65,4.65,0,0,0,9,11.69a2.86,2.86,0,0,0,.69,1.11,3,3,0,0,0,1.11.68l.17,0-.85.79A3.62,3.62,0,0,1,7.93,12.1a5.82,5.82,0,0,1-.31-1.9,5.59,5.59,0,0,1,.32-1.89,3.86,3.86,0,0,1,.9-1.45,4,4,0,0,1,1.44-.92,5.61,5.61,0,0,1,2-.32,4.93,4.93,0,0,1,1.82.31,3.88,3.88,0,0,1,1.34.87,3.81,3.81,0,0,1,.83,1.29A4.47,4.47,0,0,1,16.5,9.7a6.72,6.72,0,0,1-.09,1.13,3,3,0,0,1-.31.95,1.72,1.72,0,0,1-.59.66,1.82,1.82,0,0,1-.94.26,2,2,0,0,1-.62-.06,1,1,0,0,1-.43-.27.86.86,0,0,1-.21-.44h0a.82.82,0,0,1-.3.38,1.49,1.49,0,0,1-.55.27l-.1,0-.2-.19ZM12,3.61l1.2,1.11H10.8ZM5.23,9.85V12.9L3.58,11.38Zm-1.72,2,4.6,4.23-4.6,4.25Zm.33,8.74L12.12,13l8.05,7.63Zm16.65-.27L16,16.05l4.53-4.17Z"/><path fill="white" d="M13.08,11a2.58,2.58,0,0,0,.11-.85,2.13,2.13,0,0,0-.12-.78.81.81,0,0,0-.38-.45,1.43,1.43,0,0,0-.7-.15,1.16,1.16,0,0,0-.66.18,1.06,1.06,0,0,0-.42.49,1.64,1.64,0,0,0-.15.71,2.27,2.27,0,0,0,.12.75,1.23,1.23,0,0,0,.38.58,1.15,1.15,0,0,0,.73.21,1.27,1.27,0,0,0,.71-.17A1,1,0,0,0,13.08,11Z"/></svg>