<?xml version="1.0" standalone="no"?>
<!DOCTYPE svg PUBLIC "-//W3C//DTD SVG 1.1//EN" "http://www.w3.org/Graphics/SVG/1.1/DTD/svg11.dtd" >
<svg xmlns="http://www.w3.org/2000/svg" xmlns:xlink="http://www.w3.org/1999/xlink" version="1.1" viewBox="-10 0 522 512">
   <path fill="#16929c"
d="M362 287c62 107 -6 176 -91 192c8 -8 12 -16 12 -26c1 -14 -7 -27 -13 -33c0 6 -2 11 -5 14c-2 3 -5 4 -9 4s-8 -2 -10 -5c-2 -2 -4 -6 -3 -12s5 -12 9 -17c11 -15 10 -31 -3 -46c-1 16 -24 35 -40 62c-19 31 0 51 14 60c-27 -5 -70 -22 -89 -67c-25 -60 4 -116 33 -167
c-18 56 7 92 21 106c-4 -27 8 -47 12 -76c4 -23 -1 -43 -11 -63c-11 -20 -12 -32 -8 -54c-1 6 -1 12 0 17c4 24 28 35 43 48c22 20 26 36 24 59c21 -39 16 -77 -13 -116c-28 -38 -58 -88 -29 -135c0 46 30 73 59 106c32 34 55 60 68 106c14 49 7 88 -25 127
c24 -9 67 -41 54 -84z" />
</svg>
