<svg xmlns="http://www.w3.org/2000/svg" xmlns:xlink="http://www.w3.org/1999/xlink" viewBox="0 0 21.13239 19.47593"><defs><linearGradient id="a" x1="0.39309" y1="-7.24839" x2="-1.23321" y2="-3.45368" gradientTransform="translate(13.46132 22.08543) rotate(-9.19051)" gradientUnits="userSpaceOnUse"><stop offset="0" stop-color="#fff9fc"/><stop offset="1" stop-color="#acdbdc"/></linearGradient></defs><title>working</title><path d="M4.89036,19.48049,18.75059,17.238A10.571,10.571,0,1,0,4.89036,19.48049Z" fill="#57a459"/><path d="M12.83591,5.82531a.64151.64151,0,1,1,.11215-.4771A.61659.61659,0,0,1,12.83591,5.82531Zm-.2982-.21439a.27448.27448,0,1,0-.17851.11A.264.264,0,0,0,12.53771,5.61092Zm1.056-1.02856.2575-.04166-.96408,2.75265-.26316.04258ZM14.6883,6.796a.64047.64047,0,1,1,.113-.47723A.61739.61739,0,0,1,14.6883,6.796Zm-.35925-.59715a.2745.2745,0,1,0,.11.17852A.264.264,0,0,0,14.32905,6.19886Z" fill="#fff"/><path d="M5.446,13.50163a.61508.61508,0,0,1,.34908.18122.82611.82611,0,0,1,.17788.27409,1.437,1.437,0,0,1,.08384.29694,1.22872,1.22872,0,0,1-.04678.64065.66846.66846,0,0,1-.55744.44011l-.78782.12746-.29558-1.82687.78782-.12747A.97315.97315,0,0,1,5.446,13.50163Zm-.65473.39069.19291,1.19231.35236-.057a.38514.38514,0,0,0,.33439-.3272.9533.9533,0,0,0,.002-.35789.869.869,0,0,0-.15671-.41426.37476.37476,0,0,0-.37261-.093Z" fill="#fff"/><path d="M6.84639,15.10913l-.37941.06139-.29557-1.82688.3794-.06138Z" fill="#fff"/><path d="M7.387,14.44289A.37741.37741,0,0,0,7.487,14.619a.41.41,0,0,0,.34352.05985.71622.71622,0,0,0,.219-.0656.21573.21573,0,0,0,.12913-.23849.15881.15881,0,0,0-.10266-.12738.89169.89169,0,0,0-.26742-.04442l-.20491-.01109a1.24411,1.24411,0,0,1-.42327-.07551.451.451,0,0,1-.24853-.36521.532.532,0,0,1,.11428-.43719.78159.78159,0,0,1,.50484-.2482.82469.82469,0,0,1,.52329.0722.552.552,0,0,1,.28827.40946l-.36687.05936a.26508.26508,0,0,0-.18529-.21054.51038.51038,0,0,0-.23475-.00908.439.439,0,0,0-.2318.09864.19037.19037,0,0,0-.06326.18077.15793.15793,0,0,0,.11262.1318,1.1136,1.1136,0,0,0,.25486.0364l.33285.02377a.82682.82682,0,0,1,.33735.08137.45334.45334,0,0,1,.22381.34669.531.531,0,0,1-.12634.44718.82786.82786,0,0,1-.52.25387.90365.90365,0,0,1-.59392-.07122.54549.54549,0,0,1-.279-.41458Z" fill="#fff"/><path d="M8.8064,13.11319a.86213.86213,0,0,1,1.2408-.12192.66654.66654,0,0,1,.18021.32077l-.38176.06176a.52368.52368,0,0,0-.12537-.18323.42013.42013,0,0,0-.61652.14962.83242.83242,0,0,0-.04066.49446.73016.73016,0,0,0,.19876.44044.39459.39459,0,0,0,.34065.10175.36164.36164,0,0,0,.2782-.17976.58291.58291,0,0,0,.06022-.22693l.3794-.06139a.83415.83415,0,0,1-.17227.52621.73859.73859,0,0,1-.48667.271.78578.78578,0,0,1-.65391-.15363,1.03468,1.03468,0,0,1-.33578-.6608A1.02217,1.02217,0,0,1,8.8064,13.11319Z" fill="#fff"/><path d="M12.10989,14.091a.9589.9589,0,0,1-1.197.19367.99775.99775,0,0,1-.39984-.70875.978.978,0,0,1,.15594-.79868.9603.9603,0,0,1,1.197-.19368.98034.98034,0,0,1,.39866.70895A1.00009,1.00009,0,0,1,12.10989,14.091Zm-.28326-.23933a.92736.92736,0,0,0-.15391-.95126.47878.47878,0,0,0-.722.11641.91661.91661,0,0,0,.154.95166.47915.47915,0,0,0,.722-.11681Z" fill="#fff"/><path d="M12.40811,12.33458l.388-.06278L12.9777,13.394a.63937.63937,0,0,0,.08914.26753.37575.37575,0,0,0,.60125-.09728.64042.64042,0,0,0-.00017-.28193l-.18155-1.12215.388-.06278.18168,1.12294a.9569.9569,0,0,1-.01678.46807.68133.68133,0,0,1-.59427.40143.68349.68349,0,0,1-.69132-.19343.9519.9519,0,0,1-.16391-.43884Z" fill="#fff"/><path d="M14.235,12.039l.40057-.06481.93121,1.15652-.2061-1.27384.3555-.05752.29558,1.82688-.38137.0617-.95364-1.17581.20972,1.29618-.35589.05758Z" fill="#fff"/><path d="M17.40194,11.5266l.05232.32336-.54638.0884.24327,1.50352-.38451.06221-.24326-1.50352-.54912.08885-.05232-.32336Z" fill="#fff"/><path d="M8.07927,6.56788,8.04851,8.09132l.022.01563a1.65115,1.65115,0,0,1,.51807-.47657,2.18477,2.18477,0,0,1,1.5664-.18164,1.90451,1.90451,0,0,1,.70362.37793,2.10079,2.10079,0,0,1,.501.64307,2.74362,2.74362,0,0,1,.26953.8418,2.27213,2.27213,0,0,1-.05029.96777,2.42288,2.42288,0,0,1-.41015.83252,2.36541,2.36541,0,0,1-.69336.60937,2.43257,2.43257,0,0,1-.90723.30811,3.28,3.28,0,0,1-.92871.01514,2.29514,2.29514,0,0,1-.83008-.26758,1.95424,1.95424,0,0,1-.63672-.56446,2.03982,2.03982,0,0,1-.34961-.86767l1.32471-.20557a1.09369,1.09369,0,0,0,.44629.66113,1.0594,1.0594,0,0,0,.77783.15137,1.04384,1.04384,0,0,0,.45459-.18017,1.13783,1.13783,0,0,0,.31055-.335A1.27465,1.27465,0,0,0,10.299,10.001a1.47372,1.47372,0,0,0,.00586-.4834,1.51419,1.51419,0,0,0-.14893-.46436,1.129,1.129,0,0,0-.28418-.35644,1.06121,1.06121,0,0,0-.395-.20654,1.14682,1.14682,0,0,0-.49023-.01954,1.17947,1.17947,0,0,0-.5586.21583,1.37329,1.37329,0,0,0-.3584.46142l-1.19384.18555.083-3.70947,3.647-.56641.16943,1.09131Z" fill="#fff"/><path d="M19.986,9.0476A9.548,9.548,0,1,0,6.45643,19.18478l-.081-.50062a9.1414,9.1414,0,1,1,10.72464-1.74384l.081.50072A9.54019,9.54019,0,0,0,19.986,9.0476Z" fill="#fff"/><path d="M18.722,17.24267A10.52745,10.52745,0,0,0,4.919,19.47593Z" fill="url(#a)"/></svg>