<?xml version="1.0" standalone="no"?>
<!DOCTYPE svg PUBLIC "-//W3C//DTD SVG 1.1//EN" "http://www.w3.org/Graphics/SVG/1.1/DTD/svg11.dtd" >
<svg xmlns="http://www.w3.org/2000/svg" xmlns:xlink="http://www.w3.org/1999/xlink" version="1.1" viewBox="-10 -70 530 512">
   <path fill="#4A555F"
d="M501 282c0 0 9 32 9 33c0 15 -51 28 -133 28l-12 -74c-3 -21 -22 -44 -39 -50c-13 -6 -27 -11 -39 -16c-19 -14 -24 -30 -24 -30s45 -6 34 -72c-1 -5 -1 -9 0 -14c-1 -35 28 -67 79 -67s80 32 79 67c0 5 0 9 -1 14c-10 66 33 72 33 72s-23 38 -73 51v0s54 26 63 30
c9 5 23 17 24 28zM346 272l10 68v0c0 21 -69 37 -176 37s-177 -16 -177 -37l10 -68c2 -14 17 -31 29 -36c11 -5 80 -29 86 -43c6 -13 0 -30 0 -30c-7 -11 -13 -23 -17 -36h-1c-11 0 -19 -15 -22 -27c-2 -13 -2 -26 9 -26c0 0 1 1 2 1c-7 -47 15 -108 81 -108s81 60 81 108
c0 0 1 -1 2 -1c10 0 10 13 8 26c-2 12 -11 27 -21 27h-1c-5 13 -10 25 -17 36c0 0 -6 17 0 30c6 14 74 38 86 43c11 5 26 22 28 36z" />
</svg>
