<?xml version="1.0" standalone="no"?>
<!DOCTYPE svg PUBLIC "-//W3C//DTD SVG 1.1//EN" "http://www.w3.org/Graphics/SVG/1.1/DTD/svg11.dtd" >
<svg xmlns="http://www.w3.org/2000/svg" xmlns:xlink="http://www.w3.org/1999/xlink" version="1.1" viewBox="-10 0 1556 1792">
   <path fill="currentColor"
d="M1536 1341v128q0 26 -19 45t-45 19h-1408q-26 0 -45 -19t-19 -45v-128q0 -26 19 -45t45 -19h1408q26 0 45 19t19 45zM1536 829v128q0 26 -19 45t-45 19h-1408q-26 0 -45 -19t-19 -45v-128q0 -26 19 -45t45 -19h1408q26 0 45 19t19 45zM1536 317v128q0 26 -19 45t-45 19
h-1408q-26 0 -45 -19t-19 -45v-128q0 -26 19 -45t45 -19h1408q26 0 45 19t19 45z" />
</svg>
