<?xml version="1.0" standalone="no"?>
<!DOCTYPE svg PUBLIC "-//W3C//DTD SVG 1.1//EN" "http://www.w3.org/Graphics/SVG/1.1/DTD/svg11.dtd" >
<svg xmlns="http://www.w3.org/2000/svg" xmlns:xlink="http://www.w3.org/1999/xlink" version="1.1" viewBox="-10 0 522 512">
   <path fill="#16929c"
d="M293 142c0 -11 4 -21 7 -29v0l-31 -23l-93 67v-54h-48v88l-78 56l16 22l203 -144zM363 365c20 0 49 -8 67 -20v135h-322v-204l161 -115l16 11c-20 34 -42 80 -21 130c0 1 1 3 2 4h-56v93h117v-41c14 5 22 7 36 7zM445 206c42 74 -4 120 -62 131c5 -4 8 -10 8 -17
c0 -10 -5 -19 -9 -23c0 4 -1 8 -3 10s-4 3 -6 3c-3 0 -6 -2 -8 -4c-1 -1 -2 -4 -1 -8s3 -8 6 -11c8 -11 7 -22 -2 -32c-1 11 -16 24 -28 42c-13 21 0 35 10 42c-18 -4 -48 -15 -61 -46c-17 -41 3 -80 23 -115c-13 39 4 63 14 73c-3 -18 6 -32 8 -52c3 -16 0 -29 -7 -43
c-8 -14 -8 -22 -6 -37v12c3 16 19 23 30 33c15 13 17 24 16 40c14 -27 11 -53 -9 -80c-19 -26 -39 -60 -20 -92c0 32 21 50 41 72c21 24 37 42 46 73c10 34 5 60 -17 87c17 -6 46 -28 37 -58z" />
</svg>
