<?xml version="1.0" encoding="UTF-8"?>
<!DOCTYPE svg PUBLIC "-//W3C//DTD SVG 1.1//EN" "http://www.w3.org/Graphics/SVG/1.1/DTD/svg11.dtd">
<svg xmlns="http://www.w3.org/2000/svg" version="1.1" width="230px" height="230px" style="shape-rendering:geometricPrecision; text-rendering:geometricPrecision; image-rendering:optimizeQuality; fill-rule:evenodd; clip-rule:evenodd" xmlns:xlink="http://www.w3.org/1999/xlink">
<g><path style="opacity:0.902" fill="#429099" d="M 113.5,11.5 C 119.274,15.8202 122.94,21.6536 124.5,29C 124.304,32.267 122.97,34.9337 120.5,37C 122.286,37.7845 123.786,38.9512 125,40.5C 132.251,34.8898 140.418,33.0564 149.5,35C 157.173,37.3351 164.506,40.5018 171.5,44.5C 175.35,42.0225 179.35,41.8558 183.5,44C 188.096,50.0865 187.096,55.0865 180.5,59C 175.55,59.8583 171.883,58.0249 169.5,53.5C 163.621,50.3936 157.621,47.5603 151.5,45C 146.905,43.6071 142.239,43.2738 137.5,44C 130.594,45.7588 127.428,50.2588 128,57.5C 123.745,64.54 117.578,67.04 109.5,65C 102.358,61.8943 98.8577,56.3943 99,48.5C 95.6108,44.9795 91.4441,43.3128 86.5,43.5C 73.9333,45.4513 62.9333,50.618 53.5,59C 44.1281,58.9528 40.9614,54.4528 44,45.5C 48.1451,42.0214 52.4785,41.6881 57,44.5C 62.2123,42.1442 67.379,39.6442 72.5,37C 83.7077,32.7136 94.2077,33.8803 104,40.5C 105.214,38.9512 106.714,37.7845 108.5,37C 105.335,34.1727 104.169,30.6727 105,26.5C 107.228,21.1178 110.062,16.1178 113.5,11.5 Z"/></g>
<g><path style="opacity:0.916" fill="#429099" d="M 48.5,64.5 C 50.7925,64.2436 52.9592,64.5769 55,65.5C 64.1319,89.4228 72.9652,113.423 81.5,137.5C 84.8984,137.18 88.2317,137.513 91.5,138.5C 80.8351,161.166 63.1684,169.999 38.5,165C 24.5369,160.538 15.5369,151.372 11.5,137.5C 14.5719,137.817 17.5719,137.484 20.5,136.5C 29.3131,112.222 38.6464,88.2218 48.5,64.5 Z M 50.5,81.5 C 57.9087,99.8776 65.242,118.378 72.5,137C 58.504,137.5 44.504,137.667 30.5,137.5C 37.1667,118.833 43.8333,100.167 50.5,81.5 Z"/></g>
<g><path style="opacity:0.916" fill="#429099" d="M 174.5,64.5 C 178.49,63.6155 181.323,64.9489 183,68.5C 191.402,91.2054 199.902,113.872 208.5,136.5C 211.428,137.484 214.428,137.817 217.5,137.5C 213.463,151.372 204.463,160.538 190.5,165C 165.832,169.999 148.165,161.166 137.5,138.5C 140.768,137.513 144.102,137.18 147.5,137.5C 156.218,113.064 165.218,88.7305 174.5,64.5 Z M 177.5,81.5 C 185.02,99.8909 192.02,118.558 198.5,137.5C 184.496,137.667 170.496,137.5 156.5,137C 163.993,118.688 170.993,100.188 177.5,81.5 Z"/></g>
<g><path style="opacity:0.981" fill="#429099" d="M 99.5,74.5 C 109.5,74.5 119.5,74.5 129.5,74.5C 129.906,80.115 127.739,84.4483 123,87.5C 122.333,118.167 122.333,148.833 123,179.5C 132.354,183.873 137.521,191.206 138.5,201.5C 145.175,201.334 151.842,201.5 158.5,202C 160.049,203.214 161.215,204.714 162,206.5C 162.499,210.152 162.665,213.818 162.5,217.5C 130.5,217.5 98.5,217.5 66.5,217.5C 66.3347,213.818 66.5014,210.152 67,206.5C 67.7845,204.714 68.9512,203.214 70.5,202C 77.1583,201.5 83.825,201.334 90.5,201.5C 91.4791,191.206 96.6458,183.873 106,179.5C 106.667,148.833 106.667,118.167 106,87.5C 101.261,84.4483 99.0944,80.115 99.5,74.5 Z"/></g>
</svg>
