<svg xmlns="http://www.w3.org/2000/svg" viewBox="0 0 24 24"><path fill="white" d="M21.988,4.72349V16.7901a1.37452,1.37452,0,0,1-1.54815,1.029c-2.171-.01991-4.34229-.00725-6.51347-.00725H13.669c0,.284-.00631.53666.00577.78841a.18755.18755,0,0,0,.12313.127c.325.06269.65273.11088.97934.1652q1.73887.28922,3.47772.57852a.42817.42817,0,0,1,.37872.29c.10831.32747-.15877.58888-.54464.52558-.961-.15764-1.92009-.3271-2.882-.47882a13.44693,13.44693,0,0,0-2.93447-.33413c-.24607.01526-.49391.00118-.74092.00257a5.69915,5.69915,0,0,0-.81775.014c-.96265.14643-1.92164.31675-2.88212.47735-.64676.10814-1.29321.2183-1.94081.32122a.42063.42063,0,0,1-.54211-.3368c-.042-.2452.11764-.43026.41567-.48079q.45127-.07651.90276-.15174c1.17206-.195,2.34436-.38856,3.51561-.58827.054-.00921.13921-.07074.14119-.11124.01281-.26274.00657-.5264.00657-.808h-.23729q-1.45287,0-2.90573,0c-1.29361,0-2.58722.00244-3.88082-.0012a1.22994,1.22994,0,0,1-1.25969-.95418A.3662.3662,0,0,0,2.012,16.7901V4.72349c.03136-.08362.06041-.1682.09446-.25072a1.26922,1.26922,0,0,1,1.29731-.77088q8.59609-.00041,17.19217,0c.06495,0,.13.00092.19484.00377a1.23092,1.23092,0,0,1,1.12785.84111C21.9394,4.60649,21.96475,4.66462,21.988,4.72349Zm-1.68175.646H3.692V16.1467H20.30621Z"/></svg>