<?xml version="1.0" encoding="UTF-8"?>
<!DOCTYPE svg PUBLIC "-//W3C//DTD SVG 1.1//EN" "http://www.w3.org/Graphics/SVG/1.1/DTD/svg11.dtd">
<svg xmlns="http://www.w3.org/2000/svg" version="1.1" width="230px" height="230px" style="shape-rendering:geometricPrecision; text-rendering:geometricPrecision; image-rendering:optimizeQuality; fill-rule:evenodd; clip-rule:evenodd" xmlns:xlink="http://www.w3.org/1999/xlink">
<g><path style="opacity:0.923" fill="#429099" d="M 74.5,24.5 C 93.4265,24.2503 104.26,33.5837 107,52.5C 110.752,72.0866 102.752,83.4199 83,86.5C 72.7423,85.8801 65.0756,81.2135 60,72.5C 57.1136,65.0111 54.9469,57.3444 53.5,49.5C 55.1525,36.4559 62.1525,28.1226 74.5,24.5 Z"/></g>
<g><path style="opacity:0.921" fill="#429099" d="M 145.5,24.5 C 166.995,25.1602 176.495,36.1602 174,57.5C 172.107,64.5193 169.44,71.186 166,77.5C 154.213,88.4008 141.713,89.2342 128.5,80C 121.229,72.0815 119.062,62.9148 122,52.5C 123.745,46.2638 126.078,40.2638 129,34.5C 133.427,29.2113 138.927,25.8779 145.5,24.5 Z"/></g>
<g><path style="opacity:0.916" fill="#429099" d="M 24.5,69.5 C 43.3397,69.7351 54.3397,79.0684 57.5,97.5C 54.834,116.837 43.834,125.004 24.5,122C 4.43354,114.045 -1.3998,100.211 7,80.5C 11.5938,74.632 17.4271,70.9654 24.5,69.5 Z"/></g>
<g><path style="opacity:0.915" fill="#429099" d="M 194.5,70.5 C 213.116,68.7949 223.782,77.1282 226.5,95.5C 224.77,110.067 216.77,119.234 202.5,123C 185.881,124.788 175.714,117.621 172,101.5C 171.141,89.3865 175.974,80.2198 186.5,74C 189.309,72.9066 191.976,71.7399 194.5,70.5 Z"/></g>
<g><path style="opacity:0.963" fill="#429099" d="M 111.5,92.5 C 148.857,94.0304 171.357,113.03 179,149.5C 179.667,157.833 179.667,166.167 179,174.5C 172.86,195.825 158.694,205.658 136.5,204C 129.233,201.529 121.899,199.362 114.5,197.5C 107.101,199.362 99.7672,201.529 92.5,204C 70.3064,205.658 56.1398,195.825 50,174.5C 45.2414,142.869 56.0747,118.369 82.5,101C 91.7308,96.1956 101.397,93.3623 111.5,92.5 Z"/></g>
</svg>
