<svg xmlns="http://www.w3.org/2000/svg" viewBox="0 0 24 24"><title>ts</title><path fill="white" d="M15.62,3.28A5.85,5.85,0,0,0,12,13.68a1.57,1.57,0,0,1-1,1.59,4.06,4.06,0,0,0,2.28-.82A5.84,5.84,0,1,0,15.62,3.28Zm3.14,8.13H12.48v-.7h6.28Zm0-1.78H12.48v-.7h6.28Zm0-1.79H12.48V7.15h6.28Z"/><path fill="white" d="M13.11,15.07a4.16,4.16,0,0,1-.47.24l.48,2.47L5.76,19.21l-2.52-13L10.6,4.79l.09.48a4.93,4.93,0,0,1,.42-.49l-.2-1.06A.79.79,0,0,0,10,3.1L3.17,4.43a.78.78,0,0,0-.62.91l2.9,14.94a.8.8,0,0,0,.92.62l6.82-1.33a.78.78,0,0,0,.62-.91ZM6.35,4.42l1.82-.35a.24.24,0,0,1,.28.19.24.24,0,0,1-.19.28l-1.81.35a.23.23,0,0,1-.28-.19A.24.24,0,0,1,6.35,4.42Zm-1.13.22a.24.24,0,0,1,.28.19.23.23,0,0,1-.19.28A.24.24,0,0,1,5,4.92.25.25,0,0,1,5.22,4.64ZM9.69,19.76a.47.47,0,0,1-.54-.37.46.46,0,0,1,.9-.17A.46.46,0,0,1,9.69,19.76Z"/></svg>