<?xml version="1.0" standalone="no"?>
<!DOCTYPE svg PUBLIC "-//W3C//DTD SVG 1.1//EN" "http://www.w3.org/Graphics/SVG/1.1/DTD/svg11.dtd" >
<svg xmlns="http://www.w3.org/2000/svg" xmlns:xlink="http://www.w3.org/1999/xlink" version="1.1" viewBox="-10 0 522 512">
   <path fill="#16929c"
d="M414 98c42 42 66 98 66 158s-24 116 -66 159c-42 42 -98 65 -158 65s-116 -23 -159 -65c-42 -43 -65 -99 -65 -159s23 -116 65 -158c43 -42 99 -66 159 -66s116 24 158 66zM256 466c56 0 109 -21 148 -61c40 -40 62 -93 62 -149s-22 -109 -62 -148
c-39 -40 -92 -62 -148 -62s-109 22 -149 62c-40 39 -61 92 -61 148s21 109 61 149s93 61 149 61zM195 148c-15 17 -23 38 -23 65h33c1 -16 4 -28 8 -37c8 -16 23 -23 44 -23c18 0 30 4 37 13c8 9 12 20 12 32c0 9 -3 17 -8 25c-3 5 -7 9 -11 14l-16 15c-14 14 -24 26 -28 37
s-6 26 -6 43h33c0 -15 2 -27 6 -35c3 -8 11 -18 24 -30c16 -16 28 -28 33 -36c5 -9 8 -19 8 -33c0 -21 -7 -39 -22 -53c-15 -15 -35 -22 -60 -22c-27 0 -48 9 -64 25zM236 364v39h37v-39h-37z" />
</svg>
