<?xml version="1.0" standalone="no"?>
<!DOCTYPE svg PUBLIC "-//W3C//DTD SVG 1.1//EN" "http://www.w3.org/Graphics/SVG/1.1/DTD/svg11.dtd" >
<svg xmlns="http://www.w3.org/2000/svg" xmlns:xlink="http://www.w3.org/1999/xlink" version="1.1" viewBox="-10 0 522 512">
   <path fill="#fff"
d="M416 96c42 43 66 100 66 160c0 61 -24 117 -66 160c-43 43 -100 66 -160 66c-61 0 -117 -23 -160 -66s-66 -99 -66 -160c0 -60 23 -117 66 -160c43 -42 99 -66 160 -66c60 0 117 24 160 66zM273 403v-39h-37v39h37zM333 231c5 -9 8 -19 8 -33c0 -21 -7 -39 -22 -53
c-15 -15 -35 -22 -60 -22c-27 0 -48 9 -64 25c-15 17 -23 38 -23 65h33c1 -16 4 -28 8 -37c8 -16 23 -23 44 -23c18 0 30 4 37 13c8 9 12 20 12 32c0 9 -3 17 -8 25c-3 5 -7 9 -11 14l-16 15c-14 14 -24 26 -28 37s-6 26 -6 43h33c0 -15 2 -27 6 -35c3 -8 11 -18 24 -30
c16 -16 28 -28 33 -36z" />
</svg>
