<?xml version="1.0" encoding="UTF-8"?>
<!DOCTYPE svg PUBLIC "-//W3C//DTD SVG 1.1//EN" "http://www.w3.org/Graphics/SVG/1.1/DTD/svg11.dtd">
<svg xmlns="http://www.w3.org/2000/svg" version="1.1" width="230px" height="230px" style="shape-rendering:geometricPrecision; text-rendering:geometricPrecision; image-rendering:optimizeQuality; fill-rule:evenodd; clip-rule:evenodd" xmlns:xlink="http://www.w3.org/1999/xlink">
<g><path style="opacity:0.928" fill="#429099" d="M 112.5,30.5 C 116.331,30.2491 119.664,31.4157 122.5,34C 132.357,42.0241 142.357,49.8574 152.5,57.5C 153.061,49.4189 153.895,41.4189 155,33.5C 158.419,30.1519 162.252,29.6519 166.5,32C 167.701,32.9025 168.535,34.0692 169,35.5C 169.333,47.1667 169.667,58.8333 170,70.5C 184.049,81.8937 198.049,93.227 212,104.5C 213.833,114 210,117.833 200.5,116C 198.023,114.357 195.69,112.524 193.5,110.5C 192.667,138.161 192.167,165.827 192,193.5C 191.167,195.667 189.667,197.167 187.5,198C 138.833,198.667 90.1667,198.667 41.5,198C 39.714,197.215 38.214,196.049 37,194.5C 36.6667,166.5 36.3333,138.5 36,110.5C 32.2577,115.291 27.4244,117.124 21.5,116C 16.7012,112.929 15.5345,108.762 18,103.5C 49.2979,78.7837 80.7979,54.4504 112.5,30.5 Z M 97.5,105.5 C 104.657,105.155 107.824,108.488 107,115.5C 105.287,120.038 102.12,121.538 97.5,120C 90.8987,115.171 90.8987,110.338 97.5,105.5 Z M 126.5,105.5 C 132.575,104.533 136.241,107.033 137.5,113C 134.847,120.938 130.18,122.438 123.5,117.5C 120.896,112.68 121.896,108.68 126.5,105.5 Z M 149.5,121.5 C 156.657,121.155 159.824,124.488 159,131.5C 154.833,137.759 150.167,138.092 145,132.5C 143.776,127.626 145.276,123.959 149.5,121.5 Z M 74.5,122.5 C 81.6738,121.519 85.1738,124.519 85,131.5C 81.3078,138.637 76.6412,139.304 71,133.5C 69.2621,128.962 70.4287,125.296 74.5,122.5 Z M 91.5,124.5 C 97.1667,124.5 102.833,124.5 108.5,124.5C 108.935,132.495 109.269,140.495 109.5,148.5C 108.5,148.5 107.5,148.5 106.5,148.5C 106.779,151.118 107.446,153.618 108.5,156C 106.939,156.318 105.772,157.151 105,158.5C 104.501,162.821 104.334,167.154 104.5,171.5C 101.552,171.777 98.7191,171.444 96,170.5C 95.5008,165.845 95.3342,161.179 95.5,156.5C 94.5,156.5 93.5,156.5 92.5,156.5C 92.8333,153.833 93.1667,151.167 93.5,148.5C 92.5,148.5 91.5,148.5 90.5,148.5C 91.0231,140.51 91.3564,132.51 91.5,124.5 Z M 121.5,124.5 C 126.833,124.5 132.167,124.5 137.5,124.5C 138.125,131.496 138.792,138.496 139.5,145.5C 139.392,146.442 139.059,147.275 138.5,148C 137.234,148.309 136.067,148.809 135,149.5C 134.636,156.852 134.136,164.185 133.5,171.5C 130.833,171.5 128.167,171.5 125.5,171.5C 124.857,163.85 124.523,156.183 124.5,148.5C 122.571,148.769 120.905,148.269 119.5,147C 120.341,139.563 121.008,132.063 121.5,124.5 Z M 70.5,141.5 C 75.1667,141.5 79.8333,141.5 84.5,141.5C 85.5388,148.644 85.5388,155.644 84.5,162.5C 83.5,162.5 82.5,162.5 81.5,162.5C 81.5,165.5 81.5,168.5 81.5,171.5C 74.4926,172.519 71.8259,169.519 73.5,162.5C 72.325,162.719 71.325,162.386 70.5,161.5C 69.4032,155.006 69.4032,148.339 70.5,141.5 Z M 144.5,141.5 C 149.43,141.197 154.263,141.531 159,142.5C 159.197,147.086 159.697,151.586 160.5,156C 159.207,156.49 157.873,156.657 156.5,156.5C 156.249,161.507 155.916,166.507 155.5,171.5C 153.167,171.5 150.833,171.5 148.5,171.5C 147.836,166.527 147.503,161.527 147.5,156.5C 146.167,156.5 144.833,156.5 143.5,156.5C 144.254,151.537 144.587,146.537 144.5,141.5 Z"/></g>
</svg>
