<?xml version="1.0" standalone="no"?>
<!DOCTYPE svg PUBLIC "-//W3C//DTD SVG 1.1//EN" "http://www.w3.org/Graphics/SVG/1.1/DTD/svg11.dtd" >
<svg xmlns="http://www.w3.org/2000/svg" xmlns:xlink="http://www.w3.org/1999/xlink" version="1.1" viewBox="-10 0 522 512">
   <path fill="#16929c"
d="M254 396l209 -129l16 9l-225 138l-144 -64l16 -10zM143 307c53 0 99 -34 116 -81l74 -47l146 66l-223 142l-146 -67l21 -13h12zM306 250c-31 0 -56 14 -56 30c0 15 25 30 56 30s56 -15 56 -30c0 -16 -25 -30 -56 -30zM255 430l208 -132l16 8l-224 142l-145 -67l16 -10z
M255 184c0 62 -50 112 -112 112s-112 -50 -112 -112c0 -61 50 -111 112 -111s112 50 112 111zM73 229l27 27l45 -44l44 44l26 -27l-44 -44l45 -44l-28 -28l-44 45l-44 -44l-27 26l44 44z" />
</svg>
