<?xml version="1.0" standalone="no"?>
<!DOCTYPE svg PUBLIC "-//W3C//DTD SVG 1.1//EN" "http://www.w3.org/Graphics/SVG/1.1/DTD/svg11.dtd" >
<svg xmlns="http://www.w3.org/2000/svg" xmlns:xlink="http://www.w3.org/1999/xlink" version="1.1" viewBox="-10 0 522 512">
   <path fill="#16929c"
d="M473 164c6 6 7 14 3 18l-57 57c-4 4 -12 3 -17 -3l-39 -39l-55 55l25 25c0 1 0 1 1 1l18 18c4 5 4 12 0 16l-20 20c-4 4 -11 4 -16 0l-13 -14l-3 2l22 22c5 5 5 12 0 16l-19 19c-4 5 -12 5 -16 0l-22 -22l-2 2l16 16c4 4 4 11 0 16l-20 19c-4 5 -11 5 -16 0l-15 -15l-2 1
l2 2c4 5 4 12 0 16l-19 20c-5 4 -12 4 -16 0l-38 -39c-1 0 -1 0 -1 -1l-54 -54c-1 0 -1 -1 -1 -2c-1 -2 -1 -4 -1 -5v-30l-64 -63c-4 -4 -4 -12 1 -17l77 -77c5 -4 13 -5 17 0l45 44h65c4 0 7 2 9 5l9 8l53 -54l-50 -50c-5 -5 -5 -12 0 -16l24 -25h1c1 -1 2 -1 3 -1l81 7
c2 0 5 2 6 4c0 0 1 0 1 1l7 7l9 -8c3 -4 10 -4 13 0l38 38c4 3 4 10 0 13l-8 9zM65 388l27 -27l56 56l-27 27c-4 4 -10 4 -15 0l-41 -41c-4 -4 -4 -11 0 -15z" />
</svg>
