<svg xmlns="http://www.w3.org/2000/svg" xmlns:xlink="http://www.w3.org/1999/xlink" viewBox="0 0 24 24"><defs><linearGradient id="a" x1="-6.13" y1="-0.94" x2="15.01" y2="-0.94" gradientTransform="translate(7.56 13.15) rotate(-9.19)" gradientUnits="userSpaceOnUse"><stop offset="0" stop-color="#56adb1"/><stop offset="1" stop-color="#3e9ead"/></linearGradient><linearGradient id="b" x1="5.85" y1="4.98" x2="4.23" y2="8.77" gradientTransform="translate(7.56 13.15) rotate(-9.19)" gradientUnits="userSpaceOnUse"><stop offset="0" stop-color="#fff9fc"/><stop offset="1" stop-color="#acdbdc"/></linearGradient></defs><title>ts</title><path d="M6.33,21.74,20.19,19.5A10.57,10.57,0,1,0,6.33,21.74Z" fill="url(#a)"/><path d="M5.56,10.33l-.12-.79a7.39,7.39,0,0,0,.87-.22,1.45,1.45,0,0,0,.61-.42,1,1,0,0,0,.19-.47.68.68,0,0,0,0-.24L8.24,8l1,5.93-1.37.22-.66-4.09Z" fill="#fff"/><path d="M13.4,8a4.12,4.12,0,0,1,.89,2.18,4.19,4.19,0,0,1-.15,2.35,2.07,2.07,0,0,1-1.7,1.09,2.07,2.07,0,0,1-2-.5,4.2,4.2,0,0,1-.89-2.18,4.09,4.09,0,0,1,.16-2.35,2,2,0,0,1,1.7-1.09A2,2,0,0,1,13.4,8Zm-2,4.26a.78.78,0,0,0,.88.41A.77.77,0,0,0,13,12a5.31,5.31,0,0,0-.07-1.59,5.14,5.14,0,0,0-.44-1.56.75.75,0,0,0-.87-.39.78.78,0,0,0-.71.64A4.91,4.91,0,0,0,11,10.67,5.24,5.24,0,0,0,11.4,12.21Z" fill="#fff"/><path d="M15.63,7.93a.62.62,0,0,1-.42.26.61.61,0,0,1-.47-.11.65.65,0,0,1-.15-.9A.67.67,0,0,1,15,6.92a.65.65,0,0,1,.48.12.62.62,0,0,1,.14.89Zm-.3-.21a.23.23,0,0,0,.05-.21.29.29,0,0,0-.11-.18.24.24,0,0,0-.2,0,.22.22,0,0,0-.18.11.27.27,0,0,0,.06.38.3.3,0,0,0,.21,0A.28.28,0,0,0,15.33,7.72Zm1.06-1,.26,0-1,2.75-.26,0Zm1.1,2.21a.63.63,0,0,1-.42.26.62.62,0,0,1-.48-.11.67.67,0,0,1-.26-.42.59.59,0,0,1,.12-.48.64.64,0,0,1,1,.75Zm-.36-.6a.26.26,0,0,0-.21,0,.29.29,0,0,0-.18.11.24.24,0,0,0,0,.2.22.22,0,0,0,.11.18.28.28,0,0,0,.2.05.29.29,0,0,0,.18-.11.3.3,0,0,0,0-.21A.34.34,0,0,0,17.13,8.3Z" fill="#fff"/><path d="M6.89,15.76a.57.57,0,0,1,.34.18.75.75,0,0,1,.18.28,1.9,1.9,0,0,1,.09.29,1.21,1.21,0,0,1,0,.64.66.66,0,0,1-.56.44l-.79.13-.29-1.83.79-.12A1,1,0,0,1,6.89,15.76Zm-.66.39.19,1.19.36-.05A.38.38,0,0,0,7.11,17a1.08,1.08,0,0,0,0-.36A.93.93,0,0,0,7,16.19a.38.38,0,0,0-.38-.09Z" fill="#fff"/><path d="M8.29,17.37l-.38.06-.3-1.83L8,15.54Z" fill="#fff"/><path d="M8.83,16.7a.39.39,0,0,0,.1.18.44.44,0,0,0,.34.06.81.81,0,0,0,.22-.07.21.21,0,0,0,.13-.24.15.15,0,0,0-.1-.12.81.81,0,0,0-.27-.05H9a1.48,1.48,0,0,1-.42-.07A.46.46,0,0,1,8.37,16a.55.55,0,0,1,.12-.44.76.76,0,0,1,.5-.24.75.75,0,0,1,.52.07.53.53,0,0,1,.29.41l-.36.06a.27.27,0,0,0-.19-.21.44.44,0,0,0-.23,0,.41.41,0,0,0-.24.1.19.19,0,0,0-.06.18.16.16,0,0,0,.11.13,1.06,1.06,0,0,0,.26,0l.33,0a.89.89,0,0,1,.34.08.44.44,0,0,1,.22.35.51.51,0,0,1-.12.44.89.89,0,0,1-.52.26,1,1,0,0,1-.6-.07.58.58,0,0,1-.28-.42Z" fill="#fff"/><path d="M10.25,15.37a.72.72,0,0,1,.52-.31.77.77,0,0,1,.72.19.79.79,0,0,1,.18.32l-.38.06a.52.52,0,0,0-.13-.18.38.38,0,0,0-.32-.07.38.38,0,0,0-.3.22.85.85,0,0,0,0,.49.72.72,0,0,0,.2.44.4.4,0,0,0,.34.11.35.35,0,0,0,.28-.18.64.64,0,0,0,.06-.23l.38-.06a.83.83,0,0,1-.17.52.78.78,0,0,1-.49.28.76.76,0,0,1-.65-.16,1.2,1.2,0,0,1-.2-1.44Z" fill="#fff"/><path d="M13.55,16.35a1,1,0,0,1-1.2.19,1,1,0,0,1-.4-.7,1,1,0,0,1,.16-.8.76.76,0,0,1,.56-.31.84.84,0,0,1,.64.11,1,1,0,0,1,.39.71A1,1,0,0,1,13.55,16.35Zm-.28-.24a.72.72,0,0,0,.05-.5.73.73,0,0,0-.21-.45.43.43,0,0,0-.38-.11.45.45,0,0,0-.34.23.76.76,0,0,0-.06.49.86.86,0,0,0,.21.46.46.46,0,0,0,.39.11A.46.46,0,0,0,13.27,16.11Z" fill="#fff"/><path d="M13.85,14.59l.39-.06.18,1.12a.6.6,0,0,0,.09.27.29.29,0,0,0,.32.11c.16,0,.25-.1.28-.21a.64.64,0,0,0,0-.28l-.18-1.12.38-.06.19,1.12a1,1,0,0,1,0,.47.69.69,0,0,1-.6.4.69.69,0,0,1-.69-.19,1.07,1.07,0,0,1-.16-.44Z" fill="#fff"/><path d="M15.67,14.3l.41-.07L17,15.39l-.21-1.27.36-.06.29,1.83-.38.06-.95-1.18.21,1.3-.36.06Z" fill="#fff"/><path d="M18.84,13.79l.05.32-.54.09.24,1.5-.38.06L18,14.26l-.55.09L17.36,14Z" fill="#fff"/><path d="M21.43,11.31A9.55,9.55,0,1,0,7.9,21.44l-.08-.5A9.13,9.13,0,1,1,18.54,19.2l.08.5A9.57,9.57,0,0,0,21.43,11.31Z" fill="#fff"/><path d="M20.16,19.5a10.53,10.53,0,0,0-13.8,2.24Z" fill="url(#b)"/></svg>