<svg xmlns="http://www.w3.org/2000/svg" xmlns:xlink="http://www.w3.org/1999/xlink" viewBox="0 0 21.10888 19.48049"><defs><linearGradient id="a" x1="0.78864" y1="-12.02122" x2="-0.83767" y2="-8.22651" gradientTransform="translate(13.84509 26.86017) rotate(-9.19051)" gradientUnits="userSpaceOnUse"><stop offset="0" stop-color="#fff9fc"/><stop offset="1" stop-color="#acdbdc"/></linearGradient></defs><title>working</title><path d="M4.90229,19.48049,18.76252,17.238A10.571,10.571,0,1,0,4.90229,19.48049Z" fill="#474e93"/><path d="M4.1363,8.07042l-.12849-.79414a6.85363,6.85363,0,0,0,.87467-.21713,1.33,1.33,0,0,0,.60657-.41738,1.00466,1.00466,0,0,0,.19373-.46821.87629.87629,0,0,0,.01333-.24579l1.1194-.18112.96034,5.93553-1.37339.22221-.6623-4.09347Z" fill="#fff"/><path d="M11.9742,5.68912a4.17512,4.17512,0,0,1,.89135,2.18293,4.15343,4.15343,0,0,1-.15818,2.34854,2.05063,2.05063,0,0,1-1.69878,1.08977,2.05061,2.05061,0,0,1-1.95576-.49849A4.15333,4.15333,0,0,1,8.16215,8.633,4.17516,4.17516,0,0,1,8.31966,6.2804a2.04639,2.04639,0,0,1,1.69812-1.09386A2.04639,2.04639,0,0,1,11.9742,5.68912ZM9.977,9.94614a.77365.77365,0,0,0,.87792.41454.76172.76172,0,0,0,.69536-.66909,5.144,5.144,0,0,0-.06754-1.59581A5.08714,5.08714,0,0,0,11.04,6.53757a.76042.76042,0,0,0-.86656-.38907.77283.77283,0,0,0-.70673.64362,4.91252,4.91252,0,0,0,.06414,1.61947A4.967,4.967,0,0,0,9.977,9.94614Z" fill="#fff"/><path d="M14.20522,5.67138a.64151.64151,0,1,1,.11215-.4771A.61663.61663,0,0,1,14.20522,5.67138ZM13.907,5.457a.27447.27447,0,1,0-.17851.11A.264.264,0,0,0,13.907,5.457Zm1.056-1.02856.2575-.04166-.96408,2.75265-.26316.04258Zm1.09458,2.21365a.64047.64047,0,1,1,.113-.47724A.61734.61734,0,0,1,16.05761,6.64208Zm-.35925-.59715a.2745.2745,0,1,0,.11.17852A.264.264,0,0,0,15.69836,6.04493Z" fill="#fff"/><path d="M5.458,13.50163a.61508.61508,0,0,1,.34908.18122.82611.82611,0,0,1,.17788.27409,1.4364,1.4364,0,0,1,.08384.29694,1.22873,1.22873,0,0,1-.04677.64065.66848.66848,0,0,1-.55745.44011l-.78782.12746-.29558-1.82687.78782-.12747A.97315.97315,0,0,1,5.458,13.50163Zm-.65473.39069.19291,1.19231.35236-.057a.38513.38513,0,0,0,.33439-.3272.9535.9535,0,0,0,.002-.35789.869.869,0,0,0-.15672-.41426.37476.37476,0,0,0-.37261-.093Z" fill="#fff"/><path d="M6.85833,15.10913l-.37941.06139-.29558-1.82688.37941-.06138Z" fill="#fff"/><path d="M7.39889,14.44289A.37741.37741,0,0,0,7.499,14.619a.41006.41006,0,0,0,.34352.05985.71614.71614,0,0,0,.21905-.0656.21573.21573,0,0,0,.12913-.23849.15881.15881,0,0,0-.10266-.12738.89167.89167,0,0,0-.26741-.04442l-.20491-.01109a1.24413,1.24413,0,0,1-.42328-.07551.451.451,0,0,1-.24853-.36521.53206.53206,0,0,1,.11428-.43719.78159.78159,0,0,1,.50484-.2482.82469.82469,0,0,1,.52329.0722.552.552,0,0,1,.28827.40946l-.36686.05936a.26509.26509,0,0,0-.1853-.21054.51038.51038,0,0,0-.23475-.00908.439.439,0,0,0-.2318.09864.19037.19037,0,0,0-.06326.18077.15792.15792,0,0,0,.11263.1318,1.11338,1.11338,0,0,0,.25485.0364l.33286.02377a.82681.82681,0,0,1,.33734.08137.45337.45337,0,0,1,.22382.34669.53109.53109,0,0,1-.12634.44718.82791.82791,0,0,1-.52.25387.90367.90367,0,0,1-.59393-.07122.54549.54549,0,0,1-.279-.41458Z" fill="#fff"/><path d="M8.81834,13.11319a.86212.86212,0,0,1,1.2408-.12192.6666.6666,0,0,1,.1802.32077l-.38176.06176a.52354.52354,0,0,0-.12537-.18323.42012.42012,0,0,0-.61651.14962.83241.83241,0,0,0-.04067.49446.73017.73017,0,0,0,.19877.44044.39456.39456,0,0,0,.34064.10175.36164.36164,0,0,0,.2782-.17976.58291.58291,0,0,0,.06022-.22693l.37941-.06139A.83422.83422,0,0,1,10.16,14.435a.73857.73857,0,0,1-.48667.271.78578.78578,0,0,1-.65391-.15363,1.03462,1.03462,0,0,1-.33577-.6608A1.02212,1.02212,0,0,1,8.81834,13.11319Z" fill="#fff"/><path d="M12.12183,14.091a.95891.95891,0,0,1-1.197.19367.99775.99775,0,0,1-.39984-.70875.978.978,0,0,1,.156-.79868.96028.96028,0,0,1,1.197-.19368.98038.98038,0,0,1,.39867.70895A1.00017,1.00017,0,0,1,12.12183,14.091Zm-.28327-.23933a.9273.9273,0,0,0-.15391-.95126.47877.47877,0,0,0-.722.11641.91655.91655,0,0,0,.154.95166.47914.47914,0,0,0,.722-.11681Z" fill="#fff"/><path d="M12.42,12.33458l.388-.06278.18156,1.12215a.63951.63951,0,0,0,.08914.26753A.37575.37575,0,0,0,13.68,13.5642a.64038.64038,0,0,0-.00016-.28193l-.18156-1.12215.388-.06278.18168,1.12294a.957.957,0,0,1-.01677.46807.68133.68133,0,0,1-.59428.40143.68349.68349,0,0,1-.69132-.19343.9519.9519,0,0,1-.16391-.43884Z" fill="#fff"/><path d="M14.24692,12.039l.40058-.06481.9312,1.15652-.2061-1.27384.3555-.05752.29558,1.82688-.38137.0617-.95363-1.17581.20971,1.29618-.35589.05758Z" fill="#fff"/><path d="M17.41388,11.5266l.05232.32336-.54638.0884.24326,1.50352-.3845.06221-.24327-1.50352-.54912.08885-.05231-.32336Z" fill="#fff"/><path d="M19.99788,9.0476A9.548,9.548,0,1,0,6.46836,19.18478l-.081-.50062A9.14139,9.14139,0,1,1,17.112,16.94032l.081.50072A9.54018,9.54018,0,0,0,19.99788,9.0476Z" fill="#fff"/><path d="M18.73393,17.24267a10.52744,10.52744,0,0,0-13.803,2.23326Z" fill="url(#a)"/></svg>